<mxfile host="app.diagrams.net" modified="2021-11-28T17:57:16.795Z" agent="5.0 (Windows NT 10.0; Win64; x64) AppleWebKit/537.36 (KHTML, like Gecko) Chrome/96.0.4664.45 Safari/537.36" etag="gw31Px9nf_iJw2lLAMZq" version="14.6.6" type="github">
  <diagram id="4qcgYPeACVD64t_3w7zX" name="Page-1">
    <mxGraphModel dx="2580" dy="965" grid="1" gridSize="10" guides="1" tooltips="1" connect="1" arrows="1" fold="1" page="1" pageScale="1" pageWidth="850" pageHeight="1100" math="0" shadow="0">
      <root>
        <mxCell id="0" />
        <mxCell id="1" parent="0" />
        <mxCell id="SJ6Oe2fIhcbohcmGYuYU-1" value="" style="endArrow=none;html=1;" parent="1" edge="1">
          <mxGeometry width="50" height="50" relative="1" as="geometry">
            <mxPoint x="1390" y="100" as="sourcePoint" />
            <mxPoint x="1390" y="20" as="targetPoint" />
          </mxGeometry>
        </mxCell>
        <mxCell id="SJ6Oe2fIhcbohcmGYuYU-2" value="" style="endArrow=none;html=1;" parent="1" edge="1">
          <mxGeometry width="50" height="50" relative="1" as="geometry">
            <mxPoint x="5390" y="50" as="sourcePoint" />
            <mxPoint x="-350" y="60" as="targetPoint" />
          </mxGeometry>
        </mxCell>
        <mxCell id="SJ6Oe2fIhcbohcmGYuYU-4" value="" style="endArrow=none;html=1;exitX=0.5;exitY=0;exitDx=0;exitDy=0;" parent="1" source="SJ6Oe2fIhcbohcmGYuYU-7" edge="1">
          <mxGeometry width="50" height="50" relative="1" as="geometry">
            <mxPoint x="-350" y="160" as="sourcePoint" />
            <mxPoint x="-350" y="60" as="targetPoint" />
          </mxGeometry>
        </mxCell>
        <mxCell id="SJ6Oe2fIhcbohcmGYuYU-7" value="" style="ellipse;whiteSpace=wrap;html=1;aspect=fixed;" parent="1" vertex="1">
          <mxGeometry x="-370" y="105" width="40" height="40" as="geometry" />
        </mxCell>
        <mxCell id="SJ6Oe2fIhcbohcmGYuYU-9" value="" style="endArrow=none;html=1;fontSize=12;" parent="1" edge="1">
          <mxGeometry width="50" height="50" relative="1" as="geometry">
            <mxPoint x="-350" y="185" as="sourcePoint" />
            <mxPoint x="-350" y="145" as="targetPoint" />
          </mxGeometry>
        </mxCell>
        <mxCell id="SJ6Oe2fIhcbohcmGYuYU-10" value="" style="endArrow=none;html=1;fontSize=12;" parent="1" edge="1">
          <mxGeometry width="50" height="50" relative="1" as="geometry">
            <mxPoint x="-270" y="185" as="sourcePoint" />
            <mxPoint x="-430" y="185" as="targetPoint" />
          </mxGeometry>
        </mxCell>
        <mxCell id="SJ6Oe2fIhcbohcmGYuYU-11" value="" style="endArrow=none;html=1;fontSize=12;" parent="1" edge="1">
          <mxGeometry width="50" height="50" relative="1" as="geometry">
            <mxPoint x="-430" y="185" as="sourcePoint" />
            <mxPoint x="-430" y="225" as="targetPoint" />
          </mxGeometry>
        </mxCell>
        <mxCell id="SJ6Oe2fIhcbohcmGYuYU-12" value="T(((-N_TILES_PER_SIDE/2) + (x+0.5)) * SQUARE_LENGTH, -GROUND_WIDTH/2, ((-N_TILES_PER_SIDE/2) + (z+0.5)) * SQUARE_LENGTH)" style="text;html=1;strokeColor=none;fillColor=none;align=center;verticalAlign=middle;whiteSpace=wrap;rounded=0;fontSize=10;" parent="1" vertex="1">
          <mxGeometry x="-580" y="115" width="210" height="20" as="geometry" />
        </mxCell>
        <mxCell id="SJ6Oe2fIhcbohcmGYuYU-14" value="" style="ellipse;whiteSpace=wrap;html=1;aspect=fixed;fontSize=10;" parent="1" vertex="1">
          <mxGeometry x="-450" y="220" width="40" height="40" as="geometry" />
        </mxCell>
        <mxCell id="SJ6Oe2fIhcbohcmGYuYU-16" value="S(SQUARE_LENGTH, GROUND_WIDTH, SQUARE_LENGTH)" style="text;html=1;strokeColor=none;fillColor=none;align=center;verticalAlign=middle;whiteSpace=wrap;rounded=0;fontSize=10;" parent="1" vertex="1">
          <mxGeometry x="-550" y="230" width="80" height="20" as="geometry" />
        </mxCell>
        <mxCell id="SJ6Oe2fIhcbohcmGYuYU-17" value="" style="endArrow=none;html=1;fontSize=10;entryX=0.5;entryY=1;entryDx=0;entryDy=0;" parent="1" target="SJ6Oe2fIhcbohcmGYuYU-14" edge="1">
          <mxGeometry width="50" height="50" relative="1" as="geometry">
            <mxPoint x="-430" y="300" as="sourcePoint" />
            <mxPoint x="10" y="330" as="targetPoint" />
          </mxGeometry>
        </mxCell>
        <mxCell id="SJ6Oe2fIhcbohcmGYuYU-18" value="CUBE (Tile)" style="text;html=1;strokeColor=none;fillColor=none;align=center;verticalAlign=middle;whiteSpace=wrap;rounded=0;fontSize=10;" parent="1" vertex="1">
          <mxGeometry x="-460" y="300" width="60" height="20" as="geometry" />
        </mxCell>
        <mxCell id="SJ6Oe2fIhcbohcmGYuYU-19" value="&lt;div&gt;. . .&lt;/div&gt;&lt;div style=&quot;font-size: 10px&quot;&gt;until last tile&lt;/div&gt;&lt;div style=&quot;font-size: 10px&quot;&gt;&lt;br&gt;&lt;/div&gt;" style="text;html=1;strokeColor=none;fillColor=none;align=center;verticalAlign=middle;whiteSpace=wrap;rounded=0;fontSize=30;" parent="1" vertex="1">
          <mxGeometry x="-385" y="230" width="70" height="20" as="geometry" />
        </mxCell>
        <mxCell id="SJ6Oe2fIhcbohcmGYuYU-22" value="" style="endArrow=none;html=1;fontSize=12;" parent="1" edge="1">
          <mxGeometry width="50" height="50" relative="1" as="geometry">
            <mxPoint x="-270" y="180" as="sourcePoint" />
            <mxPoint x="-270" y="220" as="targetPoint" />
          </mxGeometry>
        </mxCell>
        <mxCell id="SJ6Oe2fIhcbohcmGYuYU-23" value="" style="ellipse;whiteSpace=wrap;html=1;aspect=fixed;fontSize=10;" parent="1" vertex="1">
          <mxGeometry x="-290" y="220" width="40" height="40" as="geometry" />
        </mxCell>
        <mxCell id="SJ6Oe2fIhcbohcmGYuYU-24" value="S(SQUARE_LENGTH, GROUND_WIDTH, SQUARE_LENGTH)" style="text;html=1;strokeColor=none;fillColor=none;align=center;verticalAlign=middle;whiteSpace=wrap;rounded=0;fontSize=10;" parent="1" vertex="1">
          <mxGeometry x="-230" y="230" width="80" height="20" as="geometry" />
        </mxCell>
        <mxCell id="SJ6Oe2fIhcbohcmGYuYU-26" value="" style="endArrow=none;html=1;fontSize=10;entryX=0.5;entryY=1;entryDx=0;entryDy=0;" parent="1" edge="1">
          <mxGeometry width="50" height="50" relative="1" as="geometry">
            <mxPoint x="-270" y="300" as="sourcePoint" />
            <mxPoint x="-270" y="260" as="targetPoint" />
          </mxGeometry>
        </mxCell>
        <mxCell id="SJ6Oe2fIhcbohcmGYuYU-27" value="CUBE (Tile)" style="text;html=1;strokeColor=none;fillColor=none;align=center;verticalAlign=middle;whiteSpace=wrap;rounded=0;fontSize=10;" parent="1" vertex="1">
          <mxGeometry x="-300" y="300" width="60" height="20" as="geometry" />
        </mxCell>
        <mxCell id="SJ6Oe2fIhcbohcmGYuYU-28" value="" style="ellipse;whiteSpace=wrap;html=1;aspect=fixed;fontSize=30;" parent="1" vertex="1">
          <mxGeometry x="1370" y="100" width="40" height="40" as="geometry" />
        </mxCell>
        <mxCell id="SJ6Oe2fIhcbohcmGYuYU-29" value="T(tankXTranslation, 0, 0)" style="text;html=1;strokeColor=none;fillColor=none;align=center;verticalAlign=middle;whiteSpace=wrap;rounded=0;fontSize=10;" parent="1" vertex="1">
          <mxGeometry x="1240" y="105" width="120" height="30" as="geometry" />
        </mxCell>
        <mxCell id="SJ6Oe2fIhcbohcmGYuYU-30" value="" style="endArrow=none;html=1;fontSize=10;entryX=0.5;entryY=1;entryDx=0;entryDy=0;" parent="1" target="SJ6Oe2fIhcbohcmGYuYU-28" edge="1">
          <mxGeometry width="50" height="50" relative="1" as="geometry">
            <mxPoint x="1390" y="180" as="sourcePoint" />
            <mxPoint x="1310" y="220" as="targetPoint" />
          </mxGeometry>
        </mxCell>
        <mxCell id="SJ6Oe2fIhcbohcmGYuYU-31" value="" style="endArrow=none;html=1;fontSize=10;" parent="1" edge="1">
          <mxGeometry width="50" height="50" relative="1" as="geometry">
            <mxPoint x="160" y="180" as="sourcePoint" />
            <mxPoint x="4220" y="180" as="targetPoint" />
          </mxGeometry>
        </mxCell>
        <mxCell id="SJ6Oe2fIhcbohcmGYuYU-32" value="" style="endArrow=none;html=1;fontSize=10;" parent="1" edge="1">
          <mxGeometry width="50" height="50" relative="1" as="geometry">
            <mxPoint x="159.5" y="220" as="sourcePoint" />
            <mxPoint x="159.5" y="180" as="targetPoint" />
          </mxGeometry>
        </mxCell>
        <mxCell id="Z4t6oIIhtMBPpLowGCtb-2" value="" style="ellipse;whiteSpace=wrap;html=1;aspect=fixed;fontSize=30;" parent="1" vertex="1">
          <mxGeometry x="140" y="220" width="40" height="40" as="geometry" />
        </mxCell>
        <mxCell id="Z4t6oIIhtMBPpLowGCtb-4" value="" style="endArrow=none;html=1;entryX=0.5;entryY=1;entryDx=0;entryDy=0;exitX=0.5;exitY=0;exitDx=0;exitDy=0;" parent="1" source="Z4t6oIIhtMBPpLowGCtb-6" target="Z4t6oIIhtMBPpLowGCtb-2" edge="1">
          <mxGeometry width="50" height="50" relative="1" as="geometry">
            <mxPoint x="160" y="290" as="sourcePoint" />
            <mxPoint x="210" y="220" as="targetPoint" />
          </mxGeometry>
        </mxCell>
        <mxCell id="Z4t6oIIhtMBPpLowGCtb-6" value="" style="ellipse;whiteSpace=wrap;html=1;aspect=fixed;fontSize=30;" parent="1" vertex="1">
          <mxGeometry x="140" y="300" width="40" height="40" as="geometry" />
        </mxCell>
        <mxCell id="Z4t6oIIhtMBPpLowGCtb-8" value="S(BODY_LENGTH, BODY_HEIGHT, BODY_WIDTH)" style="text;html=1;strokeColor=none;fillColor=none;align=center;verticalAlign=middle;whiteSpace=wrap;rounded=0;fontSize=10;" parent="1" vertex="1">
          <mxGeometry x="20" y="300" width="130" height="40" as="geometry" />
        </mxCell>
        <mxCell id="Z4t6oIIhtMBPpLowGCtb-9" value="T(0, BODY_ELEVATION, 0)" style="text;html=1;strokeColor=none;fillColor=none;align=center;verticalAlign=middle;whiteSpace=wrap;rounded=0;fontSize=10;" parent="1" vertex="1">
          <mxGeometry y="230" width="140" height="20" as="geometry" />
        </mxCell>
        <mxCell id="Z4t6oIIhtMBPpLowGCtb-10" value="" style="endArrow=none;html=1;exitX=0.5;exitY=1;exitDx=0;exitDy=0;" parent="1" source="Z4t6oIIhtMBPpLowGCtb-6" target="Z4t6oIIhtMBPpLowGCtb-12" edge="1">
          <mxGeometry width="50" height="50" relative="1" as="geometry">
            <mxPoint x="310" y="340" as="sourcePoint" />
            <mxPoint x="160" y="520" as="targetPoint" />
          </mxGeometry>
        </mxCell>
        <mxCell id="Z4t6oIIhtMBPpLowGCtb-12" value="CUBE" style="text;html=1;strokeColor=none;fillColor=none;align=center;verticalAlign=middle;whiteSpace=wrap;rounded=0;" parent="1" vertex="1">
          <mxGeometry x="140" y="510" width="40" height="20" as="geometry" />
        </mxCell>
        <mxCell id="Z4t6oIIhtMBPpLowGCtb-13" value="" style="endArrow=none;html=1;" parent="1" edge="1">
          <mxGeometry width="50" height="50" relative="1" as="geometry">
            <mxPoint x="410" y="220" as="sourcePoint" />
            <mxPoint x="410" y="180" as="targetPoint" />
          </mxGeometry>
        </mxCell>
        <mxCell id="Z4t6oIIhtMBPpLowGCtb-14" value="" style="ellipse;whiteSpace=wrap;html=1;aspect=fixed;fontSize=30;" parent="1" vertex="1">
          <mxGeometry x="390" y="220" width="40" height="40" as="geometry" />
        </mxCell>
        <mxCell id="Z4t6oIIhtMBPpLowGCtb-15" value="" style="endArrow=none;html=1;entryX=0.5;entryY=1;entryDx=0;entryDy=0;" parent="1" target="Z4t6oIIhtMBPpLowGCtb-14" edge="1">
          <mxGeometry width="50" height="50" relative="1" as="geometry">
            <mxPoint x="410" y="300" as="sourcePoint" />
            <mxPoint x="490" y="250" as="targetPoint" />
          </mxGeometry>
        </mxCell>
        <mxCell id="Z4t6oIIhtMBPpLowGCtb-17" value="" style="ellipse;whiteSpace=wrap;html=1;aspect=fixed;fontSize=30;" parent="1" vertex="1">
          <mxGeometry x="390" y="300" width="40" height="40" as="geometry" />
        </mxCell>
        <mxCell id="Z4t6oIIhtMBPpLowGCtb-18" value="T(-0.25 - BODY_LENGTH/2, BODY_ELEVATION, 0)" style="text;html=1;strokeColor=none;fillColor=none;align=center;verticalAlign=middle;whiteSpace=wrap;rounded=0;fontSize=10;" parent="1" vertex="1">
          <mxGeometry x="250" y="215" width="140" height="50" as="geometry" />
        </mxCell>
        <mxCell id="Z4t6oIIhtMBPpLowGCtb-20" value="Rz(90)" style="text;html=1;strokeColor=none;fillColor=none;align=center;verticalAlign=middle;whiteSpace=wrap;rounded=0;fontSize=10;" parent="1" vertex="1">
          <mxGeometry x="330" y="312.5" width="60" height="15" as="geometry" />
        </mxCell>
        <mxCell id="Z4t6oIIhtMBPpLowGCtb-25" value="" style="endArrow=none;html=1;entryX=0.5;entryY=1;entryDx=0;entryDy=0;" parent="1" edge="1">
          <mxGeometry width="50" height="50" relative="1" as="geometry">
            <mxPoint x="410" y="380" as="sourcePoint" />
            <mxPoint x="410" y="340" as="targetPoint" />
          </mxGeometry>
        </mxCell>
        <mxCell id="Z4t6oIIhtMBPpLowGCtb-26" value="" style="ellipse;whiteSpace=wrap;html=1;aspect=fixed;fontSize=30;" parent="1" vertex="1">
          <mxGeometry x="390" y="380" width="40" height="40" as="geometry" />
        </mxCell>
        <mxCell id="Z4t6oIIhtMBPpLowGCtb-27" value="S(BODY_HEIGHT, 0.5, BODY_WIDTH)" style="text;html=1;strokeColor=none;fillColor=none;align=center;verticalAlign=middle;whiteSpace=wrap;rounded=0;fontSize=10;" parent="1" vertex="1">
          <mxGeometry x="280" y="382.5" width="100" height="37.5" as="geometry" />
        </mxCell>
        <mxCell id="Z4t6oIIhtMBPpLowGCtb-29" value="" style="endArrow=none;html=1;fontSize=10;exitX=0.5;exitY=1;exitDx=0;exitDy=0;" parent="1" source="Z4t6oIIhtMBPpLowGCtb-26" edge="1">
          <mxGeometry width="50" height="50" relative="1" as="geometry">
            <mxPoint x="260" y="370" as="sourcePoint" />
            <mxPoint x="410" y="510" as="targetPoint" />
          </mxGeometry>
        </mxCell>
        <mxCell id="Z4t6oIIhtMBPpLowGCtb-32" value="&lt;div&gt;PYRAMID (bumper)&lt;br&gt;&lt;/div&gt;" style="text;html=1;strokeColor=none;fillColor=none;align=center;verticalAlign=middle;whiteSpace=wrap;rounded=0;" parent="1" vertex="1">
          <mxGeometry x="350" y="510" width="120" height="20" as="geometry" />
        </mxCell>
        <mxCell id="Z4t6oIIhtMBPpLowGCtb-33" value="" style="endArrow=none;html=1;" parent="1" edge="1">
          <mxGeometry width="50" height="50" relative="1" as="geometry">
            <mxPoint x="610" y="220" as="sourcePoint" />
            <mxPoint x="610" y="180" as="targetPoint" />
          </mxGeometry>
        </mxCell>
        <mxCell id="Z4t6oIIhtMBPpLowGCtb-45" value="" style="edgeStyle=orthogonalEdgeStyle;rounded=0;orthogonalLoop=1;jettySize=auto;html=1;fontSize=10;" parent="1" source="Z4t6oIIhtMBPpLowGCtb-34" edge="1">
          <mxGeometry relative="1" as="geometry">
            <mxPoint x="610" y="340" as="targetPoint" />
          </mxGeometry>
        </mxCell>
        <mxCell id="Z4t6oIIhtMBPpLowGCtb-34" value="" style="ellipse;whiteSpace=wrap;html=1;aspect=fixed;fontSize=30;" parent="1" vertex="1">
          <mxGeometry x="590" y="220" width="40" height="40" as="geometry" />
        </mxCell>
        <mxCell id="Z4t6oIIhtMBPpLowGCtb-35" value="" style="endArrow=none;html=1;entryX=0.5;entryY=1;entryDx=0;entryDy=0;" parent="1" target="Z4t6oIIhtMBPpLowGCtb-34" edge="1">
          <mxGeometry width="50" height="50" relative="1" as="geometry">
            <mxPoint x="610" y="300" as="sourcePoint" />
            <mxPoint x="690" y="250" as="targetPoint" />
          </mxGeometry>
        </mxCell>
        <mxCell id="Z4t6oIIhtMBPpLowGCtb-36" value="" style="ellipse;whiteSpace=wrap;html=1;aspect=fixed;fontSize=30;" parent="1" vertex="1">
          <mxGeometry x="590" y="300" width="40" height="40" as="geometry" />
        </mxCell>
        <mxCell id="Z4t6oIIhtMBPpLowGCtb-37" value="T(0.25 + BODY_LENGTH/2, BODY_ELEVATION, 0)" style="text;html=1;strokeColor=none;fillColor=none;align=center;verticalAlign=middle;whiteSpace=wrap;rounded=0;fontSize=10;" parent="1" vertex="1">
          <mxGeometry x="450" y="215" width="140" height="50" as="geometry" />
        </mxCell>
        <mxCell id="Z4t6oIIhtMBPpLowGCtb-38" value="Rz(-90)" style="text;html=1;strokeColor=none;fillColor=none;align=center;verticalAlign=middle;whiteSpace=wrap;rounded=0;fontSize=10;" parent="1" vertex="1">
          <mxGeometry x="530" y="312.5" width="60" height="15" as="geometry" />
        </mxCell>
        <mxCell id="Z4t6oIIhtMBPpLowGCtb-39" value="" style="endArrow=none;html=1;entryX=0.5;entryY=1;entryDx=0;entryDy=0;" parent="1" edge="1">
          <mxGeometry width="50" height="50" relative="1" as="geometry">
            <mxPoint x="610" y="380" as="sourcePoint" />
            <mxPoint x="610" y="340" as="targetPoint" />
          </mxGeometry>
        </mxCell>
        <mxCell id="Z4t6oIIhtMBPpLowGCtb-40" value="" style="ellipse;whiteSpace=wrap;html=1;aspect=fixed;fontSize=30;" parent="1" vertex="1">
          <mxGeometry x="590" y="380" width="40" height="40" as="geometry" />
        </mxCell>
        <mxCell id="Z4t6oIIhtMBPpLowGCtb-41" value="S(BODY_HEIGHT, 0.5, BODY_WIDTH)" style="text;html=1;strokeColor=none;fillColor=none;align=center;verticalAlign=middle;whiteSpace=wrap;rounded=0;fontSize=10;" parent="1" vertex="1">
          <mxGeometry x="480" y="382.5" width="100" height="37.5" as="geometry" />
        </mxCell>
        <mxCell id="Z4t6oIIhtMBPpLowGCtb-42" value="" style="endArrow=none;html=1;fontSize=10;exitX=0.5;exitY=1;exitDx=0;exitDy=0;" parent="1" source="Z4t6oIIhtMBPpLowGCtb-40" edge="1">
          <mxGeometry width="50" height="50" relative="1" as="geometry">
            <mxPoint x="460" y="370" as="sourcePoint" />
            <mxPoint x="610" y="510" as="targetPoint" />
          </mxGeometry>
        </mxCell>
        <mxCell id="Z4t6oIIhtMBPpLowGCtb-43" value="&lt;div&gt;PYRAMID (bumper)&lt;br&gt;&lt;/div&gt;" style="text;html=1;strokeColor=none;fillColor=none;align=center;verticalAlign=middle;whiteSpace=wrap;rounded=0;" parent="1" vertex="1">
          <mxGeometry x="550" y="510" width="120" height="20" as="geometry" />
        </mxCell>
        <mxCell id="Z4t6oIIhtMBPpLowGCtb-48" value="" style="endArrow=none;html=1;" parent="1" edge="1">
          <mxGeometry width="50" height="50" relative="1" as="geometry">
            <mxPoint x="1070" y="220" as="sourcePoint" />
            <mxPoint x="1070" y="180" as="targetPoint" />
          </mxGeometry>
        </mxCell>
        <mxCell id="Z4t6oIIhtMBPpLowGCtb-49" value="" style="ellipse;whiteSpace=wrap;html=1;aspect=fixed;fontSize=30;" parent="1" vertex="1">
          <mxGeometry x="1050" y="220" width="40" height="40" as="geometry" />
        </mxCell>
        <mxCell id="Z4t6oIIhtMBPpLowGCtb-50" value="" style="endArrow=none;html=1;entryX=0.5;entryY=1;entryDx=0;entryDy=0;" parent="1" target="Z4t6oIIhtMBPpLowGCtb-49" edge="1">
          <mxGeometry width="50" height="50" relative="1" as="geometry">
            <mxPoint x="1070" y="300" as="sourcePoint" />
            <mxPoint x="1150" y="250" as="targetPoint" />
          </mxGeometry>
        </mxCell>
        <mxCell id="Z4t6oIIhtMBPpLowGCtb-51" value="" style="ellipse;whiteSpace=wrap;html=1;aspect=fixed;fontSize=30;" parent="1" vertex="1">
          <mxGeometry x="1050" y="300" width="40" height="40" as="geometry" />
        </mxCell>
        <mxCell id="Z4t6oIIhtMBPpLowGCtb-52" value="T(0, BODY_ELEVATION + HATCH_HEIGHT/2, 0)" style="text;html=1;strokeColor=none;fillColor=none;align=center;verticalAlign=middle;whiteSpace=wrap;rounded=0;fontSize=10;" parent="1" vertex="1">
          <mxGeometry x="920" y="215" width="130" height="50" as="geometry" />
        </mxCell>
        <mxCell id="Z4t6oIIhtMBPpLowGCtb-53" value="Ry(hatchYRotation)" style="text;html=1;strokeColor=none;fillColor=none;align=center;verticalAlign=middle;whiteSpace=wrap;rounded=0;fontSize=10;" parent="1" vertex="1">
          <mxGeometry x="970" y="312.5" width="60" height="15" as="geometry" />
        </mxCell>
        <mxCell id="Z4t6oIIhtMBPpLowGCtb-55" value="" style="endArrow=none;html=1;fontSize=10;entryX=0.5;entryY=1;entryDx=0;entryDy=0;" parent="1" target="Z4t6oIIhtMBPpLowGCtb-51" edge="1">
          <mxGeometry width="50" height="50" relative="1" as="geometry">
            <mxPoint x="1070" y="360" as="sourcePoint" />
            <mxPoint x="1060" y="376.25" as="targetPoint" />
          </mxGeometry>
        </mxCell>
        <mxCell id="Z4t6oIIhtMBPpLowGCtb-56" value="" style="endArrow=none;html=1;fontSize=10;" parent="1" edge="1">
          <mxGeometry width="50" height="50" relative="1" as="geometry">
            <mxPoint x="870" y="360" as="sourcePoint" />
            <mxPoint x="1300" y="360" as="targetPoint" />
          </mxGeometry>
        </mxCell>
        <mxCell id="Z4t6oIIhtMBPpLowGCtb-57" value="" style="endArrow=none;html=1;fontSize=10;" parent="1" edge="1">
          <mxGeometry width="50" height="50" relative="1" as="geometry">
            <mxPoint x="870" y="360" as="sourcePoint" />
            <mxPoint x="870" y="380" as="targetPoint" />
          </mxGeometry>
        </mxCell>
        <mxCell id="Z4t6oIIhtMBPpLowGCtb-58" value="" style="ellipse;whiteSpace=wrap;html=1;aspect=fixed;fontSize=30;" parent="1" vertex="1">
          <mxGeometry x="850" y="380" width="40" height="40" as="geometry" />
        </mxCell>
        <mxCell id="Z4t6oIIhtMBPpLowGCtb-59" value="S(BODY_LENGTH * 0.5, HATCH_HEIGHT, BODY_WIDTH)" style="text;html=1;strokeColor=none;fillColor=none;align=center;verticalAlign=middle;whiteSpace=wrap;rounded=0;fontSize=10;" parent="1" vertex="1">
          <mxGeometry x="690" y="381.25" width="160" height="37.5" as="geometry" />
        </mxCell>
        <mxCell id="Z4t6oIIhtMBPpLowGCtb-60" value="" style="endArrow=none;html=1;fontSize=10;entryX=0.5;entryY=1;entryDx=0;entryDy=0;" parent="1" target="Z4t6oIIhtMBPpLowGCtb-58" edge="1">
          <mxGeometry width="50" height="50" relative="1" as="geometry">
            <mxPoint x="870" y="510" as="sourcePoint" />
            <mxPoint x="750" y="410" as="targetPoint" />
          </mxGeometry>
        </mxCell>
        <mxCell id="Z4t6oIIhtMBPpLowGCtb-61" value="SPHERE (hatch)" style="text;html=1;strokeColor=none;fillColor=none;align=center;verticalAlign=middle;whiteSpace=wrap;rounded=0;" parent="1" vertex="1">
          <mxGeometry x="810" y="510" width="120" height="20" as="geometry" />
        </mxCell>
        <mxCell id="Z4t6oIIhtMBPpLowGCtb-62" value="" style="endArrow=none;html=1;fontSize=10;" parent="1" edge="1">
          <mxGeometry width="50" height="50" relative="1" as="geometry">
            <mxPoint x="1300" y="359.9999999999999" as="sourcePoint" />
            <mxPoint x="1300" y="379.9999999999999" as="targetPoint" />
          </mxGeometry>
        </mxCell>
        <mxCell id="Z4t6oIIhtMBPpLowGCtb-63" value="" style="ellipse;whiteSpace=wrap;html=1;aspect=fixed;fontSize=30;" parent="1" vertex="1">
          <mxGeometry x="1280" y="380" width="40" height="40" as="geometry" />
        </mxCell>
        <mxCell id="Z4t6oIIhtMBPpLowGCtb-64" value="Rz(hatchZRotation)" style="text;html=1;strokeColor=none;fillColor=none;align=center;verticalAlign=middle;whiteSpace=wrap;rounded=0;fontSize=10;" parent="1" vertex="1">
          <mxGeometry x="1180" y="381.25" width="100" height="37.5" as="geometry" />
        </mxCell>
        <mxCell id="Z4t6oIIhtMBPpLowGCtb-65" value="" style="endArrow=none;html=1;fontSize=10;" parent="1" edge="1">
          <mxGeometry width="50" height="50" relative="1" as="geometry">
            <mxPoint x="1160" y="450" as="sourcePoint" />
            <mxPoint x="1430" y="450" as="targetPoint" />
          </mxGeometry>
        </mxCell>
        <mxCell id="Z4t6oIIhtMBPpLowGCtb-66" value="" style="endArrow=none;html=1;fontSize=10;" parent="1" edge="1">
          <mxGeometry width="50" height="50" relative="1" as="geometry">
            <mxPoint x="1159.83" y="449.9999999999999" as="sourcePoint" />
            <mxPoint x="1159.83" y="469.9999999999999" as="targetPoint" />
          </mxGeometry>
        </mxCell>
        <mxCell id="Z4t6oIIhtMBPpLowGCtb-67" value="" style="ellipse;whiteSpace=wrap;html=1;aspect=fixed;fontSize=30;" parent="1" vertex="1">
          <mxGeometry x="1140" y="470" width="40" height="40" as="geometry" />
        </mxCell>
        <mxCell id="Z4t6oIIhtMBPpLowGCtb-69" value="" style="endArrow=none;html=1;fontSize=10;exitX=0.5;exitY=1;exitDx=0;exitDy=0;" parent="1" source="Z4t6oIIhtMBPpLowGCtb-63" edge="1">
          <mxGeometry width="50" height="50" relative="1" as="geometry">
            <mxPoint x="1310" y="369.9999999999999" as="sourcePoint" />
            <mxPoint x="1300" y="450" as="targetPoint" />
          </mxGeometry>
        </mxCell>
        <mxCell id="Z4t6oIIhtMBPpLowGCtb-70" value="T(CANNON_TRANSLATION, CANNON_TRANSLATION, 0)" style="text;html=1;strokeColor=none;fillColor=none;align=center;verticalAlign=middle;whiteSpace=wrap;rounded=0;fontSize=10;" parent="1" vertex="1">
          <mxGeometry x="990" y="480" width="150" height="20" as="geometry" />
        </mxCell>
        <mxCell id="Z4t6oIIhtMBPpLowGCtb-72" value="" style="endArrow=none;html=1;entryX=0.5;entryY=1;entryDx=0;entryDy=0;" parent="1" edge="1">
          <mxGeometry width="50" height="50" relative="1" as="geometry">
            <mxPoint x="1159.6599999999996" y="550" as="sourcePoint" />
            <mxPoint x="1159.6599999999996" y="510" as="targetPoint" />
          </mxGeometry>
        </mxCell>
        <mxCell id="Z4t6oIIhtMBPpLowGCtb-73" value="" style="ellipse;whiteSpace=wrap;html=1;aspect=fixed;fontSize=30;" parent="1" vertex="1">
          <mxGeometry x="1140" y="550" width="40" height="40" as="geometry" />
        </mxCell>
        <mxCell id="Z4t6oIIhtMBPpLowGCtb-74" value="Rz(DEFAULT_CANNON_ROTATION)" style="text;html=1;strokeColor=none;fillColor=none;align=center;verticalAlign=middle;whiteSpace=wrap;rounded=0;fontSize=10;" parent="1" vertex="1">
          <mxGeometry x="950" y="560" width="180" height="20" as="geometry" />
        </mxCell>
        <mxCell id="Z4t6oIIhtMBPpLowGCtb-75" value="S(CANNON_RADIUS, CANNON_LENGTH, CANNON_RADIUS)" style="text;html=1;strokeColor=none;fillColor=none;align=center;verticalAlign=middle;whiteSpace=wrap;rounded=0;fontSize=10;" parent="1" vertex="1">
          <mxGeometry x="1020" y="631.25" width="110" height="37.5" as="geometry" />
        </mxCell>
        <mxCell id="Z4t6oIIhtMBPpLowGCtb-76" value="" style="endArrow=none;html=1;entryX=0.5;entryY=1;entryDx=0;entryDy=0;" parent="1" edge="1">
          <mxGeometry width="50" height="50" relative="1" as="geometry">
            <mxPoint x="1159.6599999999999" y="630" as="sourcePoint" />
            <mxPoint x="1159.6599999999999" y="590" as="targetPoint" />
          </mxGeometry>
        </mxCell>
        <mxCell id="Z4t6oIIhtMBPpLowGCtb-77" value="" style="ellipse;whiteSpace=wrap;html=1;aspect=fixed;fontSize=30;" parent="1" vertex="1">
          <mxGeometry x="1140" y="630" width="40" height="40" as="geometry" />
        </mxCell>
        <mxCell id="Z4t6oIIhtMBPpLowGCtb-78" value="" style="endArrow=none;html=1;fontSize=10;" parent="1" edge="1">
          <mxGeometry width="50" height="50" relative="1" as="geometry">
            <mxPoint x="1429.83" y="450" as="sourcePoint" />
            <mxPoint x="1429.83" y="470" as="targetPoint" />
          </mxGeometry>
        </mxCell>
        <mxCell id="Z4t6oIIhtMBPpLowGCtb-79" value="" style="ellipse;whiteSpace=wrap;html=1;aspect=fixed;fontSize=30;" parent="1" vertex="1">
          <mxGeometry x="1410" y="470" width="40" height="40" as="geometry" />
        </mxCell>
        <mxCell id="Z4t6oIIhtMBPpLowGCtb-81" value="T(SUPPRESSOR_TRANSLATION, SUPPRESSOR_TRANSLATION, 0)" style="text;html=1;strokeColor=none;fillColor=none;align=center;verticalAlign=middle;whiteSpace=wrap;rounded=0;fontSize=10;" parent="1" vertex="1">
          <mxGeometry x="1240" y="480" width="170" height="20" as="geometry" />
        </mxCell>
        <mxCell id="Z4t6oIIhtMBPpLowGCtb-82" value="Rz(DEFAULT_CANNON_ROTATION)" style="text;html=1;strokeColor=none;fillColor=none;align=center;verticalAlign=middle;whiteSpace=wrap;rounded=0;fontSize=10;" parent="1" vertex="1">
          <mxGeometry x="1230" y="560" width="180" height="20" as="geometry" />
        </mxCell>
        <mxCell id="Z4t6oIIhtMBPpLowGCtb-83" value="" style="endArrow=none;html=1;entryX=0.5;entryY=1;entryDx=0;entryDy=0;" parent="1" edge="1">
          <mxGeometry width="50" height="50" relative="1" as="geometry">
            <mxPoint x="1429.6599999999999" y="550" as="sourcePoint" />
            <mxPoint x="1429.6599999999999" y="510" as="targetPoint" />
          </mxGeometry>
        </mxCell>
        <mxCell id="Z4t6oIIhtMBPpLowGCtb-84" value="" style="ellipse;whiteSpace=wrap;html=1;aspect=fixed;fontSize=30;" parent="1" vertex="1">
          <mxGeometry x="1410" y="550" width="40" height="40" as="geometry" />
        </mxCell>
        <mxCell id="Z4t6oIIhtMBPpLowGCtb-85" value="S(SUPPRESSOR_RADIUS, SUPPRESSOR_LENGTH, SUPPRESSOR_RADIUS)" style="text;html=1;strokeColor=none;fillColor=none;align=center;verticalAlign=middle;whiteSpace=wrap;rounded=0;fontSize=10;" parent="1" vertex="1">
          <mxGeometry x="1290" y="631.25" width="110" height="37.5" as="geometry" />
        </mxCell>
        <mxCell id="Z4t6oIIhtMBPpLowGCtb-86" value="" style="endArrow=none;html=1;entryX=0.5;entryY=1;entryDx=0;entryDy=0;" parent="1" edge="1">
          <mxGeometry width="50" height="50" relative="1" as="geometry">
            <mxPoint x="1429.6599999999999" y="630" as="sourcePoint" />
            <mxPoint x="1429.6599999999999" y="590" as="targetPoint" />
          </mxGeometry>
        </mxCell>
        <mxCell id="Z4t6oIIhtMBPpLowGCtb-87" value="" style="ellipse;whiteSpace=wrap;html=1;aspect=fixed;fontSize=30;" parent="1" vertex="1">
          <mxGeometry x="1410" y="630" width="40" height="40" as="geometry" />
        </mxCell>
        <mxCell id="Z4t6oIIhtMBPpLowGCtb-88" value="" style="endArrow=none;html=1;exitX=0.5;exitY=1;exitDx=0;exitDy=0;" parent="1" edge="1">
          <mxGeometry width="50" height="50" relative="1" as="geometry">
            <mxPoint x="1159.9999999999995" y="670" as="sourcePoint" />
            <mxPoint x="1160" y="760" as="targetPoint" />
          </mxGeometry>
        </mxCell>
        <mxCell id="Z4t6oIIhtMBPpLowGCtb-89" value="TORUS (cannon)" style="text;html=1;strokeColor=none;fillColor=none;align=center;verticalAlign=middle;whiteSpace=wrap;rounded=0;" parent="1" vertex="1">
          <mxGeometry x="1105" y="760" width="110" height="20" as="geometry" />
        </mxCell>
        <mxCell id="Z4t6oIIhtMBPpLowGCtb-92" value="" style="endArrow=none;html=1;exitX=0.5;exitY=1;exitDx=0;exitDy=0;" parent="1" edge="1">
          <mxGeometry width="50" height="50" relative="1" as="geometry">
            <mxPoint x="1429.9999999999995" y="670" as="sourcePoint" />
            <mxPoint x="1430" y="760" as="targetPoint" />
          </mxGeometry>
        </mxCell>
        <mxCell id="Z4t6oIIhtMBPpLowGCtb-93" value="TORUS (supressor)" style="text;html=1;strokeColor=none;fillColor=none;align=center;verticalAlign=middle;whiteSpace=wrap;rounded=0;" parent="1" vertex="1">
          <mxGeometry x="1372.5" y="760" width="115" height="20" as="geometry" />
        </mxCell>
        <mxCell id="Z4t6oIIhtMBPpLowGCtb-95" value="" style="endArrow=none;html=1;" parent="1" edge="1">
          <mxGeometry width="50" height="50" relative="1" as="geometry">
            <mxPoint x="2549.58" y="220" as="sourcePoint" />
            <mxPoint x="2549.58" y="180" as="targetPoint" />
          </mxGeometry>
        </mxCell>
        <mxCell id="Z4t6oIIhtMBPpLowGCtb-96" value="" style="ellipse;whiteSpace=wrap;html=1;aspect=fixed;fontSize=30;" parent="1" vertex="1">
          <mxGeometry x="2530" y="220" width="40" height="40" as="geometry" />
        </mxCell>
        <mxCell id="Z4t6oIIhtMBPpLowGCtb-97" value="T(-1.5 * WHEELS_X_DISTANCE + i*WHEELS_X_DISTANCE, WHEEL_RADIUS, 0)" style="text;html=1;strokeColor=none;fillColor=none;align=center;verticalAlign=middle;whiteSpace=wrap;rounded=0;fontSize=10;" parent="1" vertex="1">
          <mxGeometry x="2370" y="215" width="160" height="50" as="geometry" />
        </mxCell>
        <mxCell id="Z4t6oIIhtMBPpLowGCtb-106" value="" style="endArrow=none;html=1;fontSize=10;entryX=0.5;entryY=1;entryDx=0;entryDy=0;" parent="1" edge="1">
          <mxGeometry width="50" height="50" relative="1" as="geometry">
            <mxPoint x="2550" y="280" as="sourcePoint" />
            <mxPoint x="2550" y="260" as="targetPoint" />
          </mxGeometry>
        </mxCell>
        <mxCell id="Z4t6oIIhtMBPpLowGCtb-107" value="" style="endArrow=none;html=1;fontSize=10;" parent="1" edge="1">
          <mxGeometry width="50" height="50" relative="1" as="geometry">
            <mxPoint x="2210" y="280" as="sourcePoint" />
            <mxPoint x="2878.823529411765" y="280" as="targetPoint" />
          </mxGeometry>
        </mxCell>
        <mxCell id="Z4t6oIIhtMBPpLowGCtb-108" value="" style="endArrow=none;html=1;fontSize=10;" parent="1" edge="1">
          <mxGeometry width="50" height="50" relative="1" as="geometry">
            <mxPoint x="2210" y="280" as="sourcePoint" />
            <mxPoint x="2210" y="300" as="targetPoint" />
          </mxGeometry>
        </mxCell>
        <mxCell id="Z4t6oIIhtMBPpLowGCtb-109" value="" style="ellipse;whiteSpace=wrap;html=1;aspect=fixed;fontSize=30;" parent="1" vertex="1">
          <mxGeometry x="2190" y="300" width="40" height="40" as="geometry" />
        </mxCell>
        <mxCell id="Z4t6oIIhtMBPpLowGCtb-112" value="T(0 , 0, (i-0.5) * WHEELS_Z_DISTANCE)" style="text;html=1;strokeColor=none;fillColor=none;align=center;verticalAlign=middle;whiteSpace=wrap;rounded=0;fontSize=10;" parent="1" vertex="1">
          <mxGeometry x="1980" y="295" width="210" height="50" as="geometry" />
        </mxCell>
        <mxCell id="Z4t6oIIhtMBPpLowGCtb-113" value="" style="endArrow=none;html=1;fontSize=10;entryX=0.5;entryY=1;entryDx=0;entryDy=0;" parent="1" edge="1">
          <mxGeometry width="50" height="50" relative="1" as="geometry">
            <mxPoint x="2210" y="360" as="sourcePoint" />
            <mxPoint x="2210" y="340" as="targetPoint" />
          </mxGeometry>
        </mxCell>
        <mxCell id="Z4t6oIIhtMBPpLowGCtb-114" value="" style="endArrow=none;html=1;fontSize=10;" parent="1" edge="1">
          <mxGeometry width="50" height="50" relative="1" as="geometry">
            <mxPoint x="1800" y="360" as="sourcePoint" />
            <mxPoint x="2620" y="360" as="targetPoint" />
          </mxGeometry>
        </mxCell>
        <mxCell id="Z4t6oIIhtMBPpLowGCtb-115" value="" style="endArrow=none;html=1;fontSize=10;" parent="1" edge="1">
          <mxGeometry width="50" height="50" relative="1" as="geometry">
            <mxPoint x="1800" y="360" as="sourcePoint" />
            <mxPoint x="1800" y="380" as="targetPoint" />
          </mxGeometry>
        </mxCell>
        <mxCell id="Z4t6oIIhtMBPpLowGCtb-116" value="" style="ellipse;whiteSpace=wrap;html=1;aspect=fixed;fontSize=30;" parent="1" vertex="1">
          <mxGeometry x="1780" y="380" width="40" height="40" as="geometry" />
        </mxCell>
        <mxCell id="Z4t6oIIhtMBPpLowGCtb-119" value="Rz(wheelsRotation)" style="text;html=1;strokeColor=none;fillColor=none;align=center;verticalAlign=middle;whiteSpace=wrap;rounded=0;fontSize=10;" parent="1" vertex="1">
          <mxGeometry x="1680" y="390" width="100" height="20" as="geometry" />
        </mxCell>
        <mxCell id="Z4t6oIIhtMBPpLowGCtb-120" value="" style="endArrow=none;html=1;fontSize=10;" parent="1" edge="1">
          <mxGeometry width="50" height="50" relative="1" as="geometry">
            <mxPoint x="1690" y="440" as="sourcePoint" />
            <mxPoint x="1880" y="440" as="targetPoint" />
          </mxGeometry>
        </mxCell>
        <mxCell id="Z4t6oIIhtMBPpLowGCtb-121" value="" style="endArrow=none;html=1;fontSize=10;" parent="1" edge="1">
          <mxGeometry width="50" height="50" relative="1" as="geometry">
            <mxPoint x="1690" y="440" as="sourcePoint" />
            <mxPoint x="1690" y="460" as="targetPoint" />
          </mxGeometry>
        </mxCell>
        <mxCell id="Z4t6oIIhtMBPpLowGCtb-122" value="" style="ellipse;whiteSpace=wrap;html=1;aspect=fixed;fontSize=30;" parent="1" vertex="1">
          <mxGeometry x="1670" y="460" width="40" height="40" as="geometry" />
        </mxCell>
        <mxCell id="Z4t6oIIhtMBPpLowGCtb-123" value="" style="endArrow=none;html=1;fontSize=10;entryX=0.5;entryY=1;entryDx=0;entryDy=0;" parent="1" edge="1">
          <mxGeometry width="50" height="50" relative="1" as="geometry">
            <mxPoint x="1799.8" y="440" as="sourcePoint" />
            <mxPoint x="1799.8" y="420" as="targetPoint" />
          </mxGeometry>
        </mxCell>
        <mxCell id="Z4t6oIIhtMBPpLowGCtb-124" value="Rx(90)" style="text;html=1;strokeColor=none;fillColor=none;align=center;verticalAlign=middle;whiteSpace=wrap;rounded=0;fontSize=10;" parent="1" vertex="1">
          <mxGeometry x="1610" y="470" width="60" height="20" as="geometry" />
        </mxCell>
        <mxCell id="Z4t6oIIhtMBPpLowGCtb-126" value="" style="endArrow=none;html=1;entryX=0.5;entryY=1;entryDx=0;entryDy=0;" parent="1" edge="1">
          <mxGeometry width="50" height="50" relative="1" as="geometry">
            <mxPoint x="1689.6599999999999" y="540" as="sourcePoint" />
            <mxPoint x="1689.6599999999999" y="500" as="targetPoint" />
          </mxGeometry>
        </mxCell>
        <mxCell id="Z4t6oIIhtMBPpLowGCtb-127" value="" style="ellipse;whiteSpace=wrap;html=1;aspect=fixed;fontSize=30;" parent="1" vertex="1">
          <mxGeometry x="1670" y="540" width="40" height="40" as="geometry" />
        </mxCell>
        <mxCell id="Z4t6oIIhtMBPpLowGCtb-128" value="S((WHEEL_RADIUS * 2) / 1.4, WHEEL_WIDTH/0.4, (WHEEL_RADIUS * 2) / 1.4)" style="text;html=1;strokeColor=none;fillColor=none;align=center;verticalAlign=middle;whiteSpace=wrap;rounded=0;fontSize=10;" parent="1" vertex="1">
          <mxGeometry x="1510" y="550" width="170" height="20" as="geometry" />
        </mxCell>
        <mxCell id="Z4t6oIIhtMBPpLowGCtb-129" value="" style="endArrow=none;html=1;exitX=0.5;exitY=1;exitDx=0;exitDy=0;" parent="1" source="Z4t6oIIhtMBPpLowGCtb-127" edge="1">
          <mxGeometry width="50" height="50" relative="1" as="geometry">
            <mxPoint x="1689.9999999999995" y="668.75" as="sourcePoint" />
            <mxPoint x="1690" y="758.75" as="targetPoint" />
          </mxGeometry>
        </mxCell>
        <mxCell id="Z4t6oIIhtMBPpLowGCtb-130" value="TORUS (tire)" style="text;html=1;strokeColor=none;fillColor=none;align=center;verticalAlign=middle;whiteSpace=wrap;rounded=0;" parent="1" vertex="1">
          <mxGeometry x="1632.5" y="758.75" width="115" height="20" as="geometry" />
        </mxCell>
        <mxCell id="Z4t6oIIhtMBPpLowGCtb-133" value="" style="endArrow=none;html=1;fontSize=10;" parent="1" edge="1">
          <mxGeometry width="50" height="50" relative="1" as="geometry">
            <mxPoint x="1880" y="440" as="sourcePoint" />
            <mxPoint x="1880" y="460" as="targetPoint" />
          </mxGeometry>
        </mxCell>
        <mxCell id="Z4t6oIIhtMBPpLowGCtb-134" value="" style="ellipse;whiteSpace=wrap;html=1;aspect=fixed;fontSize=30;" parent="1" vertex="1">
          <mxGeometry x="1860" y="460" width="40" height="40" as="geometry" />
        </mxCell>
        <mxCell id="Z4t6oIIhtMBPpLowGCtb-135" value="Rx(90)" style="text;html=1;strokeColor=none;fillColor=none;align=center;verticalAlign=middle;whiteSpace=wrap;rounded=0;fontSize=10;" parent="1" vertex="1">
          <mxGeometry x="1800" y="470" width="60" height="20" as="geometry" />
        </mxCell>
        <mxCell id="Z4t6oIIhtMBPpLowGCtb-136" value="" style="endArrow=none;html=1;entryX=0.5;entryY=1;entryDx=0;entryDy=0;" parent="1" edge="1">
          <mxGeometry width="50" height="50" relative="1" as="geometry">
            <mxPoint x="1879.6599999999999" y="540" as="sourcePoint" />
            <mxPoint x="1879.6599999999999" y="500" as="targetPoint" />
          </mxGeometry>
        </mxCell>
        <mxCell id="Z4t6oIIhtMBPpLowGCtb-137" value="" style="ellipse;whiteSpace=wrap;html=1;aspect=fixed;fontSize=30;" parent="1" vertex="1">
          <mxGeometry x="1860" y="540" width="40" height="40" as="geometry" />
        </mxCell>
        <mxCell id="Z4t6oIIhtMBPpLowGCtb-138" value="S((0.6/1.4) * WHEEL_RADIUS * 2, WHEEL_WIDTH*0.4, (0.6/1.4) * WHEEL_RADIUS * 2)" style="text;html=1;strokeColor=none;fillColor=none;align=center;verticalAlign=middle;whiteSpace=wrap;rounded=0;fontSize=10;" parent="1" vertex="1">
          <mxGeometry x="1720" y="560" width="140" height="20" as="geometry" />
        </mxCell>
        <mxCell id="Z4t6oIIhtMBPpLowGCtb-139" value="" style="endArrow=none;html=1;exitX=0.5;exitY=1;exitDx=0;exitDy=0;" parent="1" source="Z4t6oIIhtMBPpLowGCtb-137" edge="1">
          <mxGeometry width="50" height="50" relative="1" as="geometry">
            <mxPoint x="1879.9999999999995" y="668.75" as="sourcePoint" />
            <mxPoint x="1880" y="758.75" as="targetPoint" />
          </mxGeometry>
        </mxCell>
        <mxCell id="Z4t6oIIhtMBPpLowGCtb-140" value="TORUS (rim)" style="text;html=1;strokeColor=none;fillColor=none;align=center;verticalAlign=middle;whiteSpace=wrap;rounded=0;" parent="1" vertex="1">
          <mxGeometry x="1822.5" y="758.75" width="115" height="20" as="geometry" />
        </mxCell>
        <mxCell id="Z4t6oIIhtMBPpLowGCtb-141" value="" style="endArrow=none;html=1;fontSize=10;" parent="1" edge="1">
          <mxGeometry width="50" height="50" relative="1" as="geometry">
            <mxPoint x="2049.58" y="360" as="sourcePoint" />
            <mxPoint x="2049.58" y="380" as="targetPoint" />
          </mxGeometry>
        </mxCell>
        <mxCell id="Z4t6oIIhtMBPpLowGCtb-142" value="" style="ellipse;whiteSpace=wrap;html=1;aspect=fixed;fontSize=30;" parent="1" vertex="1">
          <mxGeometry x="2030" y="380" width="40" height="40" as="geometry" />
        </mxCell>
        <mxCell id="Z4t6oIIhtMBPpLowGCtb-144" value="T(0,0,-0.27)" style="text;html=1;strokeColor=none;fillColor=none;align=center;verticalAlign=middle;whiteSpace=wrap;rounded=0;fontSize=10;" parent="1" vertex="1">
          <mxGeometry x="1960" y="387.5" width="70" height="25" as="geometry" />
        </mxCell>
        <mxCell id="Z4t6oIIhtMBPpLowGCtb-145" value="" style="endArrow=none;html=1;entryX=0.5;entryY=1;entryDx=0;entryDy=0;" parent="1" edge="1">
          <mxGeometry width="50" height="50" relative="1" as="geometry">
            <mxPoint x="2049.66" y="460" as="sourcePoint" />
            <mxPoint x="2049.66" y="420" as="targetPoint" />
          </mxGeometry>
        </mxCell>
        <mxCell id="Z4t6oIIhtMBPpLowGCtb-146" value="" style="ellipse;whiteSpace=wrap;html=1;aspect=fixed;fontSize=30;" parent="1" vertex="1">
          <mxGeometry x="2030" y="460" width="40" height="40" as="geometry" />
        </mxCell>
        <mxCell id="Z4t6oIIhtMBPpLowGCtb-147" value="Rz(wheelsRotation)" style="text;html=1;strokeColor=none;fillColor=none;align=center;verticalAlign=middle;whiteSpace=wrap;rounded=0;fontSize=10;" parent="1" vertex="1">
          <mxGeometry x="1930" y="470" width="100" height="20" as="geometry" />
        </mxCell>
        <mxCell id="Z4t6oIIhtMBPpLowGCtb-149" value="Rx(-90)" style="text;html=1;strokeColor=none;fillColor=none;align=center;verticalAlign=middle;whiteSpace=wrap;rounded=0;fontSize=10;" parent="1" vertex="1">
          <mxGeometry x="1990" y="550" width="40" height="20" as="geometry" />
        </mxCell>
        <mxCell id="Z4t6oIIhtMBPpLowGCtb-150" value="" style="endArrow=none;html=1;entryX=0.5;entryY=1;entryDx=0;entryDy=0;" parent="1" edge="1">
          <mxGeometry width="50" height="50" relative="1" as="geometry">
            <mxPoint x="2049.66" y="540" as="sourcePoint" />
            <mxPoint x="2049.66" y="500" as="targetPoint" />
          </mxGeometry>
        </mxCell>
        <mxCell id="Z4t6oIIhtMBPpLowGCtb-151" value="" style="ellipse;whiteSpace=wrap;html=1;aspect=fixed;fontSize=30;" parent="1" vertex="1">
          <mxGeometry x="2030" y="540" width="40" height="40" as="geometry" />
        </mxCell>
        <mxCell id="Z4t6oIIhtMBPpLowGCtb-152" value="" style="endArrow=none;html=1;exitX=0.5;exitY=1;exitDx=0;exitDy=0;" parent="1" edge="1">
          <mxGeometry width="50" height="50" relative="1" as="geometry">
            <mxPoint x="2050" y="580" as="sourcePoint" />
            <mxPoint x="2050" y="758.75" as="targetPoint" />
          </mxGeometry>
        </mxCell>
        <mxCell id="Z4t6oIIhtMBPpLowGCtb-153" value="PYRAMID (wheelArmor)" style="text;html=1;strokeColor=none;fillColor=none;align=center;verticalAlign=middle;whiteSpace=wrap;rounded=0;" parent="1" vertex="1">
          <mxGeometry x="1981.25" y="758.75" width="137.5" height="20" as="geometry" />
        </mxCell>
        <mxCell id="Z4t6oIIhtMBPpLowGCtb-154" value="" style="endArrow=none;html=1;fontSize=10;" parent="1" edge="1">
          <mxGeometry width="50" height="50" relative="1" as="geometry">
            <mxPoint x="2365" y="357" as="sourcePoint" />
            <mxPoint x="2365" y="377.5" as="targetPoint" />
          </mxGeometry>
        </mxCell>
        <mxCell id="Z4t6oIIhtMBPpLowGCtb-155" value="" style="ellipse;whiteSpace=wrap;html=1;aspect=fixed;fontSize=30;" parent="1" vertex="1">
          <mxGeometry x="2345" y="377.5" width="40" height="40" as="geometry" />
        </mxCell>
        <mxCell id="Z4t6oIIhtMBPpLowGCtb-156" value="Rz(wheelsRotation)" style="text;html=1;strokeColor=none;fillColor=none;align=center;verticalAlign=middle;whiteSpace=wrap;rounded=0;fontSize=10;" parent="1" vertex="1">
          <mxGeometry x="2245" y="387.5" width="100" height="20" as="geometry" />
        </mxCell>
        <mxCell id="Z4t6oIIhtMBPpLowGCtb-157" value="" style="endArrow=none;html=1;fontSize=10;" parent="1" edge="1">
          <mxGeometry width="50" height="50" relative="1" as="geometry">
            <mxPoint x="2255" y="437.5" as="sourcePoint" />
            <mxPoint x="2445" y="437.5" as="targetPoint" />
          </mxGeometry>
        </mxCell>
        <mxCell id="Z4t6oIIhtMBPpLowGCtb-158" value="" style="endArrow=none;html=1;fontSize=10;" parent="1" edge="1">
          <mxGeometry width="50" height="50" relative="1" as="geometry">
            <mxPoint x="2255" y="437.5" as="sourcePoint" />
            <mxPoint x="2255" y="457.5" as="targetPoint" />
          </mxGeometry>
        </mxCell>
        <mxCell id="Z4t6oIIhtMBPpLowGCtb-159" value="" style="ellipse;whiteSpace=wrap;html=1;aspect=fixed;fontSize=30;" parent="1" vertex="1">
          <mxGeometry x="2235" y="457.5" width="40" height="40" as="geometry" />
        </mxCell>
        <mxCell id="Z4t6oIIhtMBPpLowGCtb-160" value="" style="endArrow=none;html=1;fontSize=10;entryX=0.5;entryY=1;entryDx=0;entryDy=0;" parent="1" edge="1">
          <mxGeometry width="50" height="50" relative="1" as="geometry">
            <mxPoint x="2364.8" y="437.5" as="sourcePoint" />
            <mxPoint x="2364.8" y="417.5" as="targetPoint" />
          </mxGeometry>
        </mxCell>
        <mxCell id="Z4t6oIIhtMBPpLowGCtb-161" value="Rx(90)" style="text;html=1;strokeColor=none;fillColor=none;align=center;verticalAlign=middle;whiteSpace=wrap;rounded=0;fontSize=10;" parent="1" vertex="1">
          <mxGeometry x="2175" y="467.5" width="60" height="20" as="geometry" />
        </mxCell>
        <mxCell id="Z4t6oIIhtMBPpLowGCtb-162" value="" style="endArrow=none;html=1;entryX=0.5;entryY=1;entryDx=0;entryDy=0;" parent="1" edge="1">
          <mxGeometry width="50" height="50" relative="1" as="geometry">
            <mxPoint x="2254.66" y="537.5" as="sourcePoint" />
            <mxPoint x="2254.66" y="497.5" as="targetPoint" />
          </mxGeometry>
        </mxCell>
        <mxCell id="Z4t6oIIhtMBPpLowGCtb-163" value="" style="ellipse;whiteSpace=wrap;html=1;aspect=fixed;fontSize=30;" parent="1" vertex="1">
          <mxGeometry x="2235" y="537.5" width="40" height="40" as="geometry" />
        </mxCell>
        <mxCell id="Z4t6oIIhtMBPpLowGCtb-164" value="" style="endArrow=none;html=1;exitX=0.5;exitY=1;exitDx=0;exitDy=0;entryX=0.5;entryY=0;entryDx=0;entryDy=0;" parent="1" source="Z4t6oIIhtMBPpLowGCtb-163" target="Z4t6oIIhtMBPpLowGCtb-165" edge="1">
          <mxGeometry width="50" height="50" relative="1" as="geometry">
            <mxPoint x="2254.9999999999995" y="666.25" as="sourcePoint" />
            <mxPoint x="2255" y="677.5" as="targetPoint" />
          </mxGeometry>
        </mxCell>
        <mxCell id="Z4t6oIIhtMBPpLowGCtb-165" value="TORUS (tire)" style="text;html=1;strokeColor=none;fillColor=none;align=center;verticalAlign=middle;whiteSpace=wrap;rounded=0;" parent="1" vertex="1">
          <mxGeometry x="2197.5" y="758.75" width="115" height="20" as="geometry" />
        </mxCell>
        <mxCell id="Z4t6oIIhtMBPpLowGCtb-166" value="" style="endArrow=none;html=1;fontSize=10;" parent="1" edge="1">
          <mxGeometry width="50" height="50" relative="1" as="geometry">
            <mxPoint x="2445" y="437.5" as="sourcePoint" />
            <mxPoint x="2445" y="457.5" as="targetPoint" />
          </mxGeometry>
        </mxCell>
        <mxCell id="Z4t6oIIhtMBPpLowGCtb-167" value="" style="ellipse;whiteSpace=wrap;html=1;aspect=fixed;fontSize=30;" parent="1" vertex="1">
          <mxGeometry x="2425" y="457.5" width="40" height="40" as="geometry" />
        </mxCell>
        <mxCell id="Z4t6oIIhtMBPpLowGCtb-168" value="Rx(90)" style="text;html=1;strokeColor=none;fillColor=none;align=center;verticalAlign=middle;whiteSpace=wrap;rounded=0;fontSize=10;" parent="1" vertex="1">
          <mxGeometry x="2365" y="467.5" width="60" height="20" as="geometry" />
        </mxCell>
        <mxCell id="Z4t6oIIhtMBPpLowGCtb-169" value="" style="endArrow=none;html=1;entryX=0.5;entryY=1;entryDx=0;entryDy=0;" parent="1" edge="1">
          <mxGeometry width="50" height="50" relative="1" as="geometry">
            <mxPoint x="2444.66" y="537.5" as="sourcePoint" />
            <mxPoint x="2444.66" y="497.5" as="targetPoint" />
          </mxGeometry>
        </mxCell>
        <mxCell id="Z4t6oIIhtMBPpLowGCtb-170" value="" style="ellipse;whiteSpace=wrap;html=1;aspect=fixed;fontSize=30;" parent="1" vertex="1">
          <mxGeometry x="2425" y="537.5" width="40" height="40" as="geometry" />
        </mxCell>
        <mxCell id="Z4t6oIIhtMBPpLowGCtb-171" value="S((0.6/1.4) * WHEEL_RADIUS * 2, WHEEL_WIDTH*0.4, (0.6/1.4) * WHEEL_RADIUS * 2)" style="text;html=1;strokeColor=none;fillColor=none;align=center;verticalAlign=middle;whiteSpace=wrap;rounded=0;fontSize=10;" parent="1" vertex="1">
          <mxGeometry x="2295" y="557.5" width="140" height="20" as="geometry" />
        </mxCell>
        <mxCell id="Z4t6oIIhtMBPpLowGCtb-172" value="" style="endArrow=none;html=1;exitX=0.5;exitY=1;exitDx=0;exitDy=0;entryX=0.5;entryY=0;entryDx=0;entryDy=0;" parent="1" source="Z4t6oIIhtMBPpLowGCtb-170" target="Z4t6oIIhtMBPpLowGCtb-173" edge="1">
          <mxGeometry width="50" height="50" relative="1" as="geometry">
            <mxPoint x="2444.9999999999995" y="666.25" as="sourcePoint" />
            <mxPoint x="2445" y="677.5" as="targetPoint" />
          </mxGeometry>
        </mxCell>
        <mxCell id="Z4t6oIIhtMBPpLowGCtb-173" value="TORUS (rim)" style="text;html=1;strokeColor=none;fillColor=none;align=center;verticalAlign=middle;whiteSpace=wrap;rounded=0;" parent="1" vertex="1">
          <mxGeometry x="2387.5" y="758.75" width="115" height="20" as="geometry" />
        </mxCell>
        <mxCell id="Z4t6oIIhtMBPpLowGCtb-174" value="" style="endArrow=none;html=1;fontSize=10;" parent="1" edge="1">
          <mxGeometry width="50" height="50" relative="1" as="geometry">
            <mxPoint x="2614.5799999999995" y="357.5" as="sourcePoint" />
            <mxPoint x="2614.5799999999995" y="377.5" as="targetPoint" />
          </mxGeometry>
        </mxCell>
        <mxCell id="Z4t6oIIhtMBPpLowGCtb-175" value="" style="ellipse;whiteSpace=wrap;html=1;aspect=fixed;fontSize=30;" parent="1" vertex="1">
          <mxGeometry x="2595" y="377.5" width="40" height="40" as="geometry" />
        </mxCell>
        <mxCell id="Z4t6oIIhtMBPpLowGCtb-176" value="T(0,0,-0.27)" style="text;html=1;strokeColor=none;fillColor=none;align=center;verticalAlign=middle;whiteSpace=wrap;rounded=0;fontSize=10;" parent="1" vertex="1">
          <mxGeometry x="2525" y="385" width="70" height="25" as="geometry" />
        </mxCell>
        <mxCell id="Z4t6oIIhtMBPpLowGCtb-177" value="" style="endArrow=none;html=1;entryX=0.5;entryY=1;entryDx=0;entryDy=0;" parent="1" edge="1">
          <mxGeometry width="50" height="50" relative="1" as="geometry">
            <mxPoint x="2614.66" y="457.5" as="sourcePoint" />
            <mxPoint x="2614.66" y="417.5" as="targetPoint" />
          </mxGeometry>
        </mxCell>
        <mxCell id="Z4t6oIIhtMBPpLowGCtb-178" value="" style="ellipse;whiteSpace=wrap;html=1;aspect=fixed;fontSize=30;" parent="1" vertex="1">
          <mxGeometry x="2595" y="457.5" width="40" height="40" as="geometry" />
        </mxCell>
        <mxCell id="Z4t6oIIhtMBPpLowGCtb-179" value="Rz(-wheelsRotation)" style="text;html=1;strokeColor=none;fillColor=none;align=center;verticalAlign=middle;whiteSpace=wrap;rounded=0;fontSize=10;" parent="1" vertex="1">
          <mxGeometry x="2495" y="467.5" width="100" height="20" as="geometry" />
        </mxCell>
        <mxCell id="Z4t6oIIhtMBPpLowGCtb-180" value="Rx(90)" style="text;html=1;strokeColor=none;fillColor=none;align=center;verticalAlign=middle;whiteSpace=wrap;rounded=0;fontSize=10;" parent="1" vertex="1">
          <mxGeometry x="2555" y="547.5" width="40" height="20" as="geometry" />
        </mxCell>
        <mxCell id="Z4t6oIIhtMBPpLowGCtb-181" value="" style="endArrow=none;html=1;entryX=0.5;entryY=1;entryDx=0;entryDy=0;" parent="1" edge="1">
          <mxGeometry width="50" height="50" relative="1" as="geometry">
            <mxPoint x="2614.66" y="537.5" as="sourcePoint" />
            <mxPoint x="2614.66" y="497.5" as="targetPoint" />
          </mxGeometry>
        </mxCell>
        <mxCell id="Z4t6oIIhtMBPpLowGCtb-182" value="" style="ellipse;whiteSpace=wrap;html=1;aspect=fixed;fontSize=30;" parent="1" vertex="1">
          <mxGeometry x="2595" y="537.5" width="40" height="40" as="geometry" />
        </mxCell>
        <mxCell id="Z4t6oIIhtMBPpLowGCtb-183" value="" style="endArrow=none;html=1;exitX=0.5;exitY=1;exitDx=0;exitDy=0;entryX=0.5;entryY=0;entryDx=0;entryDy=0;" parent="1" target="Z4t6oIIhtMBPpLowGCtb-184" edge="1">
          <mxGeometry width="50" height="50" relative="1" as="geometry">
            <mxPoint x="2615" y="577.5" as="sourcePoint" />
            <mxPoint x="2615" y="677.5" as="targetPoint" />
          </mxGeometry>
        </mxCell>
        <mxCell id="Z4t6oIIhtMBPpLowGCtb-184" value="PYRAMID (wheelArmor)" style="text;html=1;strokeColor=none;fillColor=none;align=center;verticalAlign=middle;whiteSpace=wrap;rounded=0;" parent="1" vertex="1">
          <mxGeometry x="2546.25" y="758.75" width="137.5" height="20" as="geometry" />
        </mxCell>
        <mxCell id="Z4t6oIIhtMBPpLowGCtb-190" value="S((WHEEL_RADIUS * 2) / 1.4, WHEEL_WIDTH/0.4, (WHEEL_RADIUS * 2) / 1.4)" style="text;html=1;strokeColor=none;fillColor=none;align=center;verticalAlign=middle;whiteSpace=wrap;rounded=0;fontSize=10;" parent="1" vertex="1">
          <mxGeometry x="2080" y="547.5" width="170" height="20" as="geometry" />
        </mxCell>
        <mxCell id="Z4t6oIIhtMBPpLowGCtb-193" value="" style="endArrow=none;html=1;exitX=0.491;exitY=0.063;exitDx=0;exitDy=0;exitPerimeter=0;" parent="1" edge="1">
          <mxGeometry width="50" height="50" relative="1" as="geometry">
            <mxPoint x="2877.9300000000003" y="330.02" as="sourcePoint" />
            <mxPoint x="2877.79" y="279.75" as="targetPoint" />
          </mxGeometry>
        </mxCell>
        <mxCell id="Z4t6oIIhtMBPpLowGCtb-194" value="" style="ellipse;whiteSpace=wrap;html=1;aspect=fixed;fontSize=30;" parent="1" vertex="1">
          <mxGeometry x="2858.75" y="327.5" width="40" height="40" as="geometry" />
        </mxCell>
        <mxCell id="Z4t6oIIhtMBPpLowGCtb-195" value="" style="endArrow=none;html=1;entryX=0.5;entryY=1;entryDx=0;entryDy=0;" parent="1" edge="1">
          <mxGeometry width="50" height="50" relative="1" as="geometry">
            <mxPoint x="2878.29" y="420" as="sourcePoint" />
            <mxPoint x="2878.29" y="367.5" as="targetPoint" />
          </mxGeometry>
        </mxCell>
        <mxCell id="Z4t6oIIhtMBPpLowGCtb-196" value="" style="ellipse;whiteSpace=wrap;html=1;aspect=fixed;fontSize=30;" parent="1" vertex="1">
          <mxGeometry x="2858.75" y="418.75" width="40" height="40" as="geometry" />
        </mxCell>
        <mxCell id="Z4t6oIIhtMBPpLowGCtb-197" value="" style="endArrow=none;html=1;entryX=0.5;entryY=1;entryDx=0;entryDy=0;exitX=0.5;exitY=0;exitDx=0;exitDy=0;" parent="1" edge="1">
          <mxGeometry width="50" height="50" relative="1" as="geometry">
            <mxPoint x="2878.29" y="530" as="sourcePoint" />
            <mxPoint x="2878.29" y="458.75" as="targetPoint" />
          </mxGeometry>
        </mxCell>
        <mxCell id="Z4t6oIIhtMBPpLowGCtb-198" value="" style="ellipse;whiteSpace=wrap;html=1;aspect=fixed;fontSize=30;" parent="1" vertex="1">
          <mxGeometry x="2858.75" y="530" width="40" height="40" as="geometry" />
        </mxCell>
        <mxCell id="Z4t6oIIhtMBPpLowGCtb-199" value="" style="endArrow=none;html=1;exitX=0.5;exitY=1;exitDx=0;exitDy=0;" parent="1" edge="1">
          <mxGeometry width="50" height="50" relative="1" as="geometry">
            <mxPoint x="2878.29" y="570" as="sourcePoint" />
            <mxPoint x="2878.29" y="758.75" as="targetPoint" />
          </mxGeometry>
        </mxCell>
        <mxCell id="Z4t6oIIhtMBPpLowGCtb-200" value="PYRAMID (axles)" style="text;html=1;strokeColor=none;fillColor=none;align=center;verticalAlign=middle;whiteSpace=wrap;rounded=0;" parent="1" vertex="1">
          <mxGeometry x="2818.75" y="760" width="137.5" height="20" as="geometry" />
        </mxCell>
        <mxCell id="Z4t6oIIhtMBPpLowGCtb-201" value="Rx(90)" style="text;html=1;strokeColor=none;fillColor=none;align=center;verticalAlign=middle;whiteSpace=wrap;rounded=0;fontSize=10;" parent="1" vertex="1">
          <mxGeometry x="2810" y="337.5" width="40" height="20" as="geometry" />
        </mxCell>
        <mxCell id="Z4t6oIIhtMBPpLowGCtb-202" value="Ry(wheelsRotation)" style="text;html=1;strokeColor=none;fillColor=none;align=center;verticalAlign=middle;whiteSpace=wrap;rounded=0;fontSize=10;" parent="1" vertex="1">
          <mxGeometry x="2750" y="428.75" width="100" height="20" as="geometry" />
        </mxCell>
        <mxCell id="Z4t6oIIhtMBPpLowGCtb-203" value="S(0.1, WHEELS_Z_DISTANCE, 0.1)" style="text;html=1;strokeColor=none;fillColor=none;align=center;verticalAlign=middle;whiteSpace=wrap;rounded=0;fontSize=10;" parent="1" vertex="1">
          <mxGeometry x="2670" y="540" width="180" height="20" as="geometry" />
        </mxCell>
        <mxCell id="fZ7k1q9AKKnvevmPlnid-10" value="&lt;div&gt;&lt;font style=&quot;font-size: 66px&quot;&gt;. . .&lt;/font&gt;&lt;/div&gt;&lt;div&gt;&lt;font style=&quot;font-size: 31px&quot;&gt;until end of loop&lt;/font&gt;&lt;/div&gt;&lt;div&gt;i=3&lt;br&gt;&lt;/div&gt;" style="text;html=1;strokeColor=none;fillColor=none;align=center;verticalAlign=middle;whiteSpace=wrap;rounded=0;fontSize=40;" parent="1" vertex="1">
          <mxGeometry x="2930" y="448.75" width="253.75" height="151.25" as="geometry" />
        </mxCell>
        <mxCell id="fZ7k1q9AKKnvevmPlnid-101" value="" style="endArrow=none;html=1;" parent="1" edge="1">
          <mxGeometry width="50" height="50" relative="1" as="geometry">
            <mxPoint x="4218.160000000001" y="220" as="sourcePoint" />
            <mxPoint x="4218.160000000001" y="180" as="targetPoint" />
          </mxGeometry>
        </mxCell>
        <mxCell id="fZ7k1q9AKKnvevmPlnid-102" value="" style="ellipse;whiteSpace=wrap;html=1;aspect=fixed;fontSize=30;" parent="1" vertex="1">
          <mxGeometry x="4198.75" y="217.5" width="40" height="40" as="geometry" />
        </mxCell>
        <mxCell id="fZ7k1q9AKKnvevmPlnid-103" value="T(-1.5 * WHEELS_X_DISTANCE + i*WHEELS_X_DISTANCE, WHEEL_RADIUS, 0)" style="text;html=1;strokeColor=none;fillColor=none;align=center;verticalAlign=middle;whiteSpace=wrap;rounded=0;fontSize=10;" parent="1" vertex="1">
          <mxGeometry x="4020" y="212.5" width="160" height="50" as="geometry" />
        </mxCell>
        <mxCell id="fZ7k1q9AKKnvevmPlnid-104" value="" style="endArrow=none;html=1;fontSize=10;entryX=0.5;entryY=1;entryDx=0;entryDy=0;" parent="1" edge="1">
          <mxGeometry width="50" height="50" relative="1" as="geometry">
            <mxPoint x="4218.33" y="277.5" as="sourcePoint" />
            <mxPoint x="4218.33" y="257.5" as="targetPoint" />
          </mxGeometry>
        </mxCell>
        <mxCell id="fZ7k1q9AKKnvevmPlnid-105" value="" style="endArrow=none;html=1;fontSize=10;" parent="1" edge="1">
          <mxGeometry width="50" height="50" relative="1" as="geometry">
            <mxPoint x="3883.75" y="277.5" as="sourcePoint" />
            <mxPoint x="4552.573529411766" y="277.5" as="targetPoint" />
          </mxGeometry>
        </mxCell>
        <mxCell id="fZ7k1q9AKKnvevmPlnid-106" value="" style="endArrow=none;html=1;fontSize=10;" parent="1" edge="1">
          <mxGeometry width="50" height="50" relative="1" as="geometry">
            <mxPoint x="3883.75" y="277.5" as="sourcePoint" />
            <mxPoint x="3883.75" y="297.5" as="targetPoint" />
          </mxGeometry>
        </mxCell>
        <mxCell id="fZ7k1q9AKKnvevmPlnid-107" value="" style="ellipse;whiteSpace=wrap;html=1;aspect=fixed;fontSize=30;" parent="1" vertex="1">
          <mxGeometry x="3863.75" y="297.5" width="40" height="40" as="geometry" />
        </mxCell>
        <mxCell id="fZ7k1q9AKKnvevmPlnid-108" value="T(0 , 0, (i-0.5) * WHEELS_Z_DISTANCE)" style="text;html=1;strokeColor=none;fillColor=none;align=center;verticalAlign=middle;whiteSpace=wrap;rounded=0;fontSize=10;" parent="1" vertex="1">
          <mxGeometry x="3653.75" y="292.5" width="210" height="50" as="geometry" />
        </mxCell>
        <mxCell id="fZ7k1q9AKKnvevmPlnid-109" value="" style="endArrow=none;html=1;fontSize=10;entryX=0.5;entryY=1;entryDx=0;entryDy=0;" parent="1" edge="1">
          <mxGeometry width="50" height="50" relative="1" as="geometry">
            <mxPoint x="3883.75" y="357.5" as="sourcePoint" />
            <mxPoint x="3883.75" y="337.5" as="targetPoint" />
          </mxGeometry>
        </mxCell>
        <mxCell id="fZ7k1q9AKKnvevmPlnid-110" value="" style="endArrow=none;html=1;fontSize=10;" parent="1" edge="1">
          <mxGeometry width="50" height="50" relative="1" as="geometry">
            <mxPoint x="3473.75" y="357.5" as="sourcePoint" />
            <mxPoint x="4293.75" y="357.5" as="targetPoint" />
          </mxGeometry>
        </mxCell>
        <mxCell id="fZ7k1q9AKKnvevmPlnid-111" value="" style="endArrow=none;html=1;fontSize=10;" parent="1" edge="1">
          <mxGeometry width="50" height="50" relative="1" as="geometry">
            <mxPoint x="3473.75" y="357.5" as="sourcePoint" />
            <mxPoint x="3473.75" y="377.5" as="targetPoint" />
          </mxGeometry>
        </mxCell>
        <mxCell id="fZ7k1q9AKKnvevmPlnid-112" value="" style="ellipse;whiteSpace=wrap;html=1;aspect=fixed;fontSize=30;" parent="1" vertex="1">
          <mxGeometry x="3453.75" y="377.5" width="40" height="40" as="geometry" />
        </mxCell>
        <mxCell id="fZ7k1q9AKKnvevmPlnid-113" value="Rz(wheelsRotation)" style="text;html=1;strokeColor=none;fillColor=none;align=center;verticalAlign=middle;whiteSpace=wrap;rounded=0;fontSize=10;" parent="1" vertex="1">
          <mxGeometry x="3353.75" y="387.5" width="100" height="20" as="geometry" />
        </mxCell>
        <mxCell id="fZ7k1q9AKKnvevmPlnid-114" value="" style="endArrow=none;html=1;fontSize=10;" parent="1" edge="1">
          <mxGeometry width="50" height="50" relative="1" as="geometry">
            <mxPoint x="3363.75" y="437.5" as="sourcePoint" />
            <mxPoint x="3553.75" y="437.5" as="targetPoint" />
          </mxGeometry>
        </mxCell>
        <mxCell id="fZ7k1q9AKKnvevmPlnid-115" value="" style="endArrow=none;html=1;fontSize=10;" parent="1" edge="1">
          <mxGeometry width="50" height="50" relative="1" as="geometry">
            <mxPoint x="3363.75" y="437.5" as="sourcePoint" />
            <mxPoint x="3363.75" y="457.5" as="targetPoint" />
          </mxGeometry>
        </mxCell>
        <mxCell id="fZ7k1q9AKKnvevmPlnid-116" value="" style="ellipse;whiteSpace=wrap;html=1;aspect=fixed;fontSize=30;" parent="1" vertex="1">
          <mxGeometry x="3343.75" y="457.5" width="40" height="40" as="geometry" />
        </mxCell>
        <mxCell id="fZ7k1q9AKKnvevmPlnid-117" value="" style="endArrow=none;html=1;fontSize=10;entryX=0.5;entryY=1;entryDx=0;entryDy=0;" parent="1" edge="1">
          <mxGeometry width="50" height="50" relative="1" as="geometry">
            <mxPoint x="3473.55" y="437.5" as="sourcePoint" />
            <mxPoint x="3473.55" y="417.5" as="targetPoint" />
          </mxGeometry>
        </mxCell>
        <mxCell id="fZ7k1q9AKKnvevmPlnid-118" value="Rx(90)" style="text;html=1;strokeColor=none;fillColor=none;align=center;verticalAlign=middle;whiteSpace=wrap;rounded=0;fontSize=10;" parent="1" vertex="1">
          <mxGeometry x="3283.75" y="467.5" width="60" height="20" as="geometry" />
        </mxCell>
        <mxCell id="fZ7k1q9AKKnvevmPlnid-119" value="" style="endArrow=none;html=1;entryX=0.5;entryY=1;entryDx=0;entryDy=0;" parent="1" edge="1">
          <mxGeometry width="50" height="50" relative="1" as="geometry">
            <mxPoint x="3363.41" y="537.5" as="sourcePoint" />
            <mxPoint x="3363.41" y="497.5" as="targetPoint" />
          </mxGeometry>
        </mxCell>
        <mxCell id="fZ7k1q9AKKnvevmPlnid-120" value="" style="ellipse;whiteSpace=wrap;html=1;aspect=fixed;fontSize=30;" parent="1" vertex="1">
          <mxGeometry x="3343.75" y="537.5" width="40" height="40" as="geometry" />
        </mxCell>
        <mxCell id="fZ7k1q9AKKnvevmPlnid-121" value="S((WHEEL_RADIUS * 2) / 1.4, WHEEL_WIDTH/0.4, (WHEEL_RADIUS * 2) / 1.4)" style="text;html=1;strokeColor=none;fillColor=none;align=center;verticalAlign=middle;whiteSpace=wrap;rounded=0;fontSize=10;" parent="1" vertex="1">
          <mxGeometry x="3183.75" y="547.5" width="170" height="20" as="geometry" />
        </mxCell>
        <mxCell id="fZ7k1q9AKKnvevmPlnid-122" value="" style="endArrow=none;html=1;exitX=0.5;exitY=1;exitDx=0;exitDy=0;" parent="1" source="fZ7k1q9AKKnvevmPlnid-120" edge="1">
          <mxGeometry width="50" height="50" relative="1" as="geometry">
            <mxPoint x="3363.7499999999995" y="666.25" as="sourcePoint" />
            <mxPoint x="3363.75" y="756.25" as="targetPoint" />
          </mxGeometry>
        </mxCell>
        <mxCell id="fZ7k1q9AKKnvevmPlnid-123" value="TORUS (tire)" style="text;html=1;strokeColor=none;fillColor=none;align=center;verticalAlign=middle;whiteSpace=wrap;rounded=0;" parent="1" vertex="1">
          <mxGeometry x="3306.25" y="756.25" width="115" height="20" as="geometry" />
        </mxCell>
        <mxCell id="fZ7k1q9AKKnvevmPlnid-124" value="" style="endArrow=none;html=1;fontSize=10;" parent="1" edge="1">
          <mxGeometry width="50" height="50" relative="1" as="geometry">
            <mxPoint x="3553.75" y="437.5" as="sourcePoint" />
            <mxPoint x="3553.75" y="457.5" as="targetPoint" />
          </mxGeometry>
        </mxCell>
        <mxCell id="fZ7k1q9AKKnvevmPlnid-125" value="" style="ellipse;whiteSpace=wrap;html=1;aspect=fixed;fontSize=30;" parent="1" vertex="1">
          <mxGeometry x="3533.75" y="457.5" width="40" height="40" as="geometry" />
        </mxCell>
        <mxCell id="fZ7k1q9AKKnvevmPlnid-126" value="Rx(90)" style="text;html=1;strokeColor=none;fillColor=none;align=center;verticalAlign=middle;whiteSpace=wrap;rounded=0;fontSize=10;" parent="1" vertex="1">
          <mxGeometry x="3473.75" y="467.5" width="60" height="20" as="geometry" />
        </mxCell>
        <mxCell id="fZ7k1q9AKKnvevmPlnid-127" value="" style="endArrow=none;html=1;entryX=0.5;entryY=1;entryDx=0;entryDy=0;" parent="1" edge="1">
          <mxGeometry width="50" height="50" relative="1" as="geometry">
            <mxPoint x="3553.41" y="537.5" as="sourcePoint" />
            <mxPoint x="3553.41" y="497.5" as="targetPoint" />
          </mxGeometry>
        </mxCell>
        <mxCell id="fZ7k1q9AKKnvevmPlnid-128" value="" style="ellipse;whiteSpace=wrap;html=1;aspect=fixed;fontSize=30;" parent="1" vertex="1">
          <mxGeometry x="3533.75" y="537.5" width="40" height="40" as="geometry" />
        </mxCell>
        <mxCell id="fZ7k1q9AKKnvevmPlnid-129" value="S((0.6/1.4) * WHEEL_RADIUS * 2, WHEEL_WIDTH*0.4, (0.6/1.4) * WHEEL_RADIUS * 2)" style="text;html=1;strokeColor=none;fillColor=none;align=center;verticalAlign=middle;whiteSpace=wrap;rounded=0;fontSize=10;" parent="1" vertex="1">
          <mxGeometry x="3393.75" y="557.5" width="140" height="20" as="geometry" />
        </mxCell>
        <mxCell id="fZ7k1q9AKKnvevmPlnid-130" value="" style="endArrow=none;html=1;exitX=0.5;exitY=1;exitDx=0;exitDy=0;" parent="1" source="fZ7k1q9AKKnvevmPlnid-128" edge="1">
          <mxGeometry width="50" height="50" relative="1" as="geometry">
            <mxPoint x="3553.7499999999995" y="666.25" as="sourcePoint" />
            <mxPoint x="3553.75" y="756.25" as="targetPoint" />
          </mxGeometry>
        </mxCell>
        <mxCell id="fZ7k1q9AKKnvevmPlnid-131" value="TORUS (rim)" style="text;html=1;strokeColor=none;fillColor=none;align=center;verticalAlign=middle;whiteSpace=wrap;rounded=0;" parent="1" vertex="1">
          <mxGeometry x="3496.25" y="756.25" width="115" height="20" as="geometry" />
        </mxCell>
        <mxCell id="fZ7k1q9AKKnvevmPlnid-132" value="" style="endArrow=none;html=1;fontSize=10;" parent="1" edge="1">
          <mxGeometry width="50" height="50" relative="1" as="geometry">
            <mxPoint x="3723.330000000001" y="357.5" as="sourcePoint" />
            <mxPoint x="3723.330000000001" y="377.5" as="targetPoint" />
          </mxGeometry>
        </mxCell>
        <mxCell id="fZ7k1q9AKKnvevmPlnid-133" value="" style="ellipse;whiteSpace=wrap;html=1;aspect=fixed;fontSize=30;" parent="1" vertex="1">
          <mxGeometry x="3703.75" y="377.5" width="40" height="40" as="geometry" />
        </mxCell>
        <mxCell id="fZ7k1q9AKKnvevmPlnid-134" value="T(0,0,-0.27)" style="text;html=1;strokeColor=none;fillColor=none;align=center;verticalAlign=middle;whiteSpace=wrap;rounded=0;fontSize=10;" parent="1" vertex="1">
          <mxGeometry x="3633.75" y="385" width="70" height="25" as="geometry" />
        </mxCell>
        <mxCell id="fZ7k1q9AKKnvevmPlnid-135" value="" style="endArrow=none;html=1;entryX=0.5;entryY=1;entryDx=0;entryDy=0;" parent="1" edge="1">
          <mxGeometry width="50" height="50" relative="1" as="geometry">
            <mxPoint x="3723.41" y="457.5" as="sourcePoint" />
            <mxPoint x="3723.41" y="417.5" as="targetPoint" />
          </mxGeometry>
        </mxCell>
        <mxCell id="fZ7k1q9AKKnvevmPlnid-136" value="" style="ellipse;whiteSpace=wrap;html=1;aspect=fixed;fontSize=30;" parent="1" vertex="1">
          <mxGeometry x="3703.75" y="457.5" width="40" height="40" as="geometry" />
        </mxCell>
        <mxCell id="fZ7k1q9AKKnvevmPlnid-137" value="Rz(wheelsRotation)" style="text;html=1;strokeColor=none;fillColor=none;align=center;verticalAlign=middle;whiteSpace=wrap;rounded=0;fontSize=10;" parent="1" vertex="1">
          <mxGeometry x="3603.75" y="467.5" width="100" height="20" as="geometry" />
        </mxCell>
        <mxCell id="fZ7k1q9AKKnvevmPlnid-138" value="Rx(-90)" style="text;html=1;strokeColor=none;fillColor=none;align=center;verticalAlign=middle;whiteSpace=wrap;rounded=0;fontSize=10;" parent="1" vertex="1">
          <mxGeometry x="3663.75" y="547.5" width="40" height="20" as="geometry" />
        </mxCell>
        <mxCell id="fZ7k1q9AKKnvevmPlnid-139" value="" style="endArrow=none;html=1;entryX=0.5;entryY=1;entryDx=0;entryDy=0;" parent="1" edge="1">
          <mxGeometry width="50" height="50" relative="1" as="geometry">
            <mxPoint x="3723.41" y="537.5" as="sourcePoint" />
            <mxPoint x="3723.41" y="497.5" as="targetPoint" />
          </mxGeometry>
        </mxCell>
        <mxCell id="fZ7k1q9AKKnvevmPlnid-140" value="" style="ellipse;whiteSpace=wrap;html=1;aspect=fixed;fontSize=30;" parent="1" vertex="1">
          <mxGeometry x="3703.75" y="537.5" width="40" height="40" as="geometry" />
        </mxCell>
        <mxCell id="fZ7k1q9AKKnvevmPlnid-141" value="" style="endArrow=none;html=1;exitX=0.5;exitY=1;exitDx=0;exitDy=0;" parent="1" edge="1">
          <mxGeometry width="50" height="50" relative="1" as="geometry">
            <mxPoint x="3723.75" y="577.5" as="sourcePoint" />
            <mxPoint x="3723.75" y="756.25" as="targetPoint" />
          </mxGeometry>
        </mxCell>
        <mxCell id="fZ7k1q9AKKnvevmPlnid-142" value="PYRAMID (wheelArmor)" style="text;html=1;strokeColor=none;fillColor=none;align=center;verticalAlign=middle;whiteSpace=wrap;rounded=0;" parent="1" vertex="1">
          <mxGeometry x="3655" y="756.25" width="137.5" height="20" as="geometry" />
        </mxCell>
        <mxCell id="fZ7k1q9AKKnvevmPlnid-143" value="" style="endArrow=none;html=1;fontSize=10;" parent="1" edge="1">
          <mxGeometry width="50" height="50" relative="1" as="geometry">
            <mxPoint x="4038.75" y="354.5" as="sourcePoint" />
            <mxPoint x="4038.75" y="375" as="targetPoint" />
          </mxGeometry>
        </mxCell>
        <mxCell id="fZ7k1q9AKKnvevmPlnid-144" value="" style="ellipse;whiteSpace=wrap;html=1;aspect=fixed;fontSize=30;" parent="1" vertex="1">
          <mxGeometry x="4018.75" y="375" width="40" height="40" as="geometry" />
        </mxCell>
        <mxCell id="fZ7k1q9AKKnvevmPlnid-145" value="Rz(wheelsRotation)" style="text;html=1;strokeColor=none;fillColor=none;align=center;verticalAlign=middle;whiteSpace=wrap;rounded=0;fontSize=10;" parent="1" vertex="1">
          <mxGeometry x="3918.75" y="385" width="100" height="20" as="geometry" />
        </mxCell>
        <mxCell id="fZ7k1q9AKKnvevmPlnid-146" value="" style="endArrow=none;html=1;fontSize=10;" parent="1" edge="1">
          <mxGeometry width="50" height="50" relative="1" as="geometry">
            <mxPoint x="3928.75" y="435" as="sourcePoint" />
            <mxPoint x="4118.75" y="435" as="targetPoint" />
          </mxGeometry>
        </mxCell>
        <mxCell id="fZ7k1q9AKKnvevmPlnid-147" value="" style="endArrow=none;html=1;fontSize=10;" parent="1" edge="1">
          <mxGeometry width="50" height="50" relative="1" as="geometry">
            <mxPoint x="3928.75" y="435" as="sourcePoint" />
            <mxPoint x="3928.75" y="455" as="targetPoint" />
          </mxGeometry>
        </mxCell>
        <mxCell id="fZ7k1q9AKKnvevmPlnid-148" value="" style="ellipse;whiteSpace=wrap;html=1;aspect=fixed;fontSize=30;" parent="1" vertex="1">
          <mxGeometry x="3908.75" y="455" width="40" height="40" as="geometry" />
        </mxCell>
        <mxCell id="fZ7k1q9AKKnvevmPlnid-149" value="" style="endArrow=none;html=1;fontSize=10;entryX=0.5;entryY=1;entryDx=0;entryDy=0;" parent="1" edge="1">
          <mxGeometry width="50" height="50" relative="1" as="geometry">
            <mxPoint x="4038.55" y="435" as="sourcePoint" />
            <mxPoint x="4038.55" y="415" as="targetPoint" />
          </mxGeometry>
        </mxCell>
        <mxCell id="fZ7k1q9AKKnvevmPlnid-150" value="Rx(90)" style="text;html=1;strokeColor=none;fillColor=none;align=center;verticalAlign=middle;whiteSpace=wrap;rounded=0;fontSize=10;" parent="1" vertex="1">
          <mxGeometry x="3848.75" y="465" width="60" height="20" as="geometry" />
        </mxCell>
        <mxCell id="fZ7k1q9AKKnvevmPlnid-151" value="" style="endArrow=none;html=1;entryX=0.5;entryY=1;entryDx=0;entryDy=0;" parent="1" edge="1">
          <mxGeometry width="50" height="50" relative="1" as="geometry">
            <mxPoint x="3928.41" y="535" as="sourcePoint" />
            <mxPoint x="3928.41" y="495" as="targetPoint" />
          </mxGeometry>
        </mxCell>
        <mxCell id="fZ7k1q9AKKnvevmPlnid-152" value="" style="ellipse;whiteSpace=wrap;html=1;aspect=fixed;fontSize=30;" parent="1" vertex="1">
          <mxGeometry x="3908.75" y="535" width="40" height="40" as="geometry" />
        </mxCell>
        <mxCell id="fZ7k1q9AKKnvevmPlnid-153" value="" style="endArrow=none;html=1;exitX=0.5;exitY=1;exitDx=0;exitDy=0;entryX=0.5;entryY=0;entryDx=0;entryDy=0;" parent="1" source="fZ7k1q9AKKnvevmPlnid-152" target="fZ7k1q9AKKnvevmPlnid-154" edge="1">
          <mxGeometry width="50" height="50" relative="1" as="geometry">
            <mxPoint x="3928.7499999999995" y="663.75" as="sourcePoint" />
            <mxPoint x="3928.75" y="675" as="targetPoint" />
          </mxGeometry>
        </mxCell>
        <mxCell id="fZ7k1q9AKKnvevmPlnid-154" value="TORUS (tire)" style="text;html=1;strokeColor=none;fillColor=none;align=center;verticalAlign=middle;whiteSpace=wrap;rounded=0;" parent="1" vertex="1">
          <mxGeometry x="3871.25" y="756.25" width="115" height="20" as="geometry" />
        </mxCell>
        <mxCell id="fZ7k1q9AKKnvevmPlnid-155" value="" style="endArrow=none;html=1;fontSize=10;" parent="1" edge="1">
          <mxGeometry width="50" height="50" relative="1" as="geometry">
            <mxPoint x="4118.75" y="435" as="sourcePoint" />
            <mxPoint x="4118.75" y="455" as="targetPoint" />
          </mxGeometry>
        </mxCell>
        <mxCell id="fZ7k1q9AKKnvevmPlnid-156" value="" style="ellipse;whiteSpace=wrap;html=1;aspect=fixed;fontSize=30;" parent="1" vertex="1">
          <mxGeometry x="4098.75" y="455" width="40" height="40" as="geometry" />
        </mxCell>
        <mxCell id="fZ7k1q9AKKnvevmPlnid-157" value="Rx(90)" style="text;html=1;strokeColor=none;fillColor=none;align=center;verticalAlign=middle;whiteSpace=wrap;rounded=0;fontSize=10;" parent="1" vertex="1">
          <mxGeometry x="4038.75" y="465" width="60" height="20" as="geometry" />
        </mxCell>
        <mxCell id="fZ7k1q9AKKnvevmPlnid-158" value="" style="endArrow=none;html=1;entryX=0.5;entryY=1;entryDx=0;entryDy=0;" parent="1" edge="1">
          <mxGeometry width="50" height="50" relative="1" as="geometry">
            <mxPoint x="4118.41" y="535" as="sourcePoint" />
            <mxPoint x="4118.41" y="495" as="targetPoint" />
          </mxGeometry>
        </mxCell>
        <mxCell id="fZ7k1q9AKKnvevmPlnid-159" value="" style="ellipse;whiteSpace=wrap;html=1;aspect=fixed;fontSize=30;" parent="1" vertex="1">
          <mxGeometry x="4098.75" y="535" width="40" height="40" as="geometry" />
        </mxCell>
        <mxCell id="fZ7k1q9AKKnvevmPlnid-160" value="S((0.6/1.4) * WHEEL_RADIUS * 2, WHEEL_WIDTH*0.4, (0.6/1.4) * WHEEL_RADIUS * 2)" style="text;html=1;strokeColor=none;fillColor=none;align=center;verticalAlign=middle;whiteSpace=wrap;rounded=0;fontSize=10;" parent="1" vertex="1">
          <mxGeometry x="3968.75" y="555" width="140" height="20" as="geometry" />
        </mxCell>
        <mxCell id="fZ7k1q9AKKnvevmPlnid-161" value="" style="endArrow=none;html=1;exitX=0.5;exitY=1;exitDx=0;exitDy=0;entryX=0.5;entryY=0;entryDx=0;entryDy=0;" parent="1" source="fZ7k1q9AKKnvevmPlnid-159" target="fZ7k1q9AKKnvevmPlnid-162" edge="1">
          <mxGeometry width="50" height="50" relative="1" as="geometry">
            <mxPoint x="4118.75" y="663.75" as="sourcePoint" />
            <mxPoint x="4118.75" y="675" as="targetPoint" />
          </mxGeometry>
        </mxCell>
        <mxCell id="fZ7k1q9AKKnvevmPlnid-162" value="TORUS (rim)" style="text;html=1;strokeColor=none;fillColor=none;align=center;verticalAlign=middle;whiteSpace=wrap;rounded=0;" parent="1" vertex="1">
          <mxGeometry x="4061.25" y="756.25" width="115" height="20" as="geometry" />
        </mxCell>
        <mxCell id="fZ7k1q9AKKnvevmPlnid-163" value="" style="endArrow=none;html=1;fontSize=10;" parent="1" edge="1">
          <mxGeometry width="50" height="50" relative="1" as="geometry">
            <mxPoint x="4288.330000000001" y="355" as="sourcePoint" />
            <mxPoint x="4288.330000000001" y="375" as="targetPoint" />
          </mxGeometry>
        </mxCell>
        <mxCell id="fZ7k1q9AKKnvevmPlnid-164" value="" style="ellipse;whiteSpace=wrap;html=1;aspect=fixed;fontSize=30;" parent="1" vertex="1">
          <mxGeometry x="4268.75" y="375" width="40" height="40" as="geometry" />
        </mxCell>
        <mxCell id="fZ7k1q9AKKnvevmPlnid-165" value="T(0,0,-0.27)" style="text;html=1;strokeColor=none;fillColor=none;align=center;verticalAlign=middle;whiteSpace=wrap;rounded=0;fontSize=10;" parent="1" vertex="1">
          <mxGeometry x="4198.75" y="382.5" width="70" height="25" as="geometry" />
        </mxCell>
        <mxCell id="fZ7k1q9AKKnvevmPlnid-166" value="" style="endArrow=none;html=1;entryX=0.5;entryY=1;entryDx=0;entryDy=0;" parent="1" edge="1">
          <mxGeometry width="50" height="50" relative="1" as="geometry">
            <mxPoint x="4288.41" y="455" as="sourcePoint" />
            <mxPoint x="4288.41" y="415" as="targetPoint" />
          </mxGeometry>
        </mxCell>
        <mxCell id="fZ7k1q9AKKnvevmPlnid-167" value="" style="ellipse;whiteSpace=wrap;html=1;aspect=fixed;fontSize=30;" parent="1" vertex="1">
          <mxGeometry x="4268.75" y="455" width="40" height="40" as="geometry" />
        </mxCell>
        <mxCell id="fZ7k1q9AKKnvevmPlnid-168" value="Rz(-wheelsRotation)" style="text;html=1;strokeColor=none;fillColor=none;align=center;verticalAlign=middle;whiteSpace=wrap;rounded=0;fontSize=10;" parent="1" vertex="1">
          <mxGeometry x="4168.75" y="465" width="100" height="20" as="geometry" />
        </mxCell>
        <mxCell id="fZ7k1q9AKKnvevmPlnid-169" value="Rx(90)" style="text;html=1;strokeColor=none;fillColor=none;align=center;verticalAlign=middle;whiteSpace=wrap;rounded=0;fontSize=10;" parent="1" vertex="1">
          <mxGeometry x="4228.75" y="545" width="40" height="20" as="geometry" />
        </mxCell>
        <mxCell id="fZ7k1q9AKKnvevmPlnid-170" value="" style="endArrow=none;html=1;entryX=0.5;entryY=1;entryDx=0;entryDy=0;" parent="1" edge="1">
          <mxGeometry width="50" height="50" relative="1" as="geometry">
            <mxPoint x="4288.41" y="535" as="sourcePoint" />
            <mxPoint x="4288.41" y="495" as="targetPoint" />
          </mxGeometry>
        </mxCell>
        <mxCell id="fZ7k1q9AKKnvevmPlnid-171" value="" style="ellipse;whiteSpace=wrap;html=1;aspect=fixed;fontSize=30;" parent="1" vertex="1">
          <mxGeometry x="4268.75" y="535" width="40" height="40" as="geometry" />
        </mxCell>
        <mxCell id="fZ7k1q9AKKnvevmPlnid-172" value="" style="endArrow=none;html=1;exitX=0.5;exitY=1;exitDx=0;exitDy=0;entryX=0.5;entryY=0;entryDx=0;entryDy=0;" parent="1" target="fZ7k1q9AKKnvevmPlnid-173" edge="1">
          <mxGeometry width="50" height="50" relative="1" as="geometry">
            <mxPoint x="4288.75" y="575" as="sourcePoint" />
            <mxPoint x="4288.75" y="675" as="targetPoint" />
          </mxGeometry>
        </mxCell>
        <mxCell id="fZ7k1q9AKKnvevmPlnid-173" value="PYRAMID (wheelArmor)" style="text;html=1;strokeColor=none;fillColor=none;align=center;verticalAlign=middle;whiteSpace=wrap;rounded=0;" parent="1" vertex="1">
          <mxGeometry x="4220" y="756.25" width="137.5" height="20" as="geometry" />
        </mxCell>
        <mxCell id="fZ7k1q9AKKnvevmPlnid-174" value="S((WHEEL_RADIUS * 2) / 1.4, WHEEL_WIDTH/0.4, (WHEEL_RADIUS * 2) / 1.4)" style="text;html=1;strokeColor=none;fillColor=none;align=center;verticalAlign=middle;whiteSpace=wrap;rounded=0;fontSize=10;" parent="1" vertex="1">
          <mxGeometry x="3753.75" y="545" width="170" height="20" as="geometry" />
        </mxCell>
        <mxCell id="fZ7k1q9AKKnvevmPlnid-175" value="" style="endArrow=none;html=1;exitX=0.491;exitY=0.063;exitDx=0;exitDy=0;exitPerimeter=0;" parent="1" edge="1">
          <mxGeometry width="50" height="50" relative="1" as="geometry">
            <mxPoint x="4551.680000000001" y="327.52" as="sourcePoint" />
            <mxPoint x="4551.54" y="277.25" as="targetPoint" />
          </mxGeometry>
        </mxCell>
        <mxCell id="fZ7k1q9AKKnvevmPlnid-176" value="" style="ellipse;whiteSpace=wrap;html=1;aspect=fixed;fontSize=30;" parent="1" vertex="1">
          <mxGeometry x="4532.5" y="325" width="40" height="40" as="geometry" />
        </mxCell>
        <mxCell id="fZ7k1q9AKKnvevmPlnid-177" value="" style="endArrow=none;html=1;entryX=0.5;entryY=1;entryDx=0;entryDy=0;" parent="1" edge="1">
          <mxGeometry width="50" height="50" relative="1" as="geometry">
            <mxPoint x="4552.04" y="417.5" as="sourcePoint" />
            <mxPoint x="4552.04" y="365" as="targetPoint" />
          </mxGeometry>
        </mxCell>
        <mxCell id="fZ7k1q9AKKnvevmPlnid-178" value="" style="ellipse;whiteSpace=wrap;html=1;aspect=fixed;fontSize=30;" parent="1" vertex="1">
          <mxGeometry x="4532.5" y="416.25" width="40" height="40" as="geometry" />
        </mxCell>
        <mxCell id="fZ7k1q9AKKnvevmPlnid-179" value="" style="endArrow=none;html=1;entryX=0.5;entryY=1;entryDx=0;entryDy=0;exitX=0.5;exitY=0;exitDx=0;exitDy=0;" parent="1" edge="1">
          <mxGeometry width="50" height="50" relative="1" as="geometry">
            <mxPoint x="4552.04" y="527.5" as="sourcePoint" />
            <mxPoint x="4552.04" y="456.25" as="targetPoint" />
          </mxGeometry>
        </mxCell>
        <mxCell id="fZ7k1q9AKKnvevmPlnid-180" value="" style="ellipse;whiteSpace=wrap;html=1;aspect=fixed;fontSize=30;" parent="1" vertex="1">
          <mxGeometry x="4532.5" y="527.5" width="40" height="40" as="geometry" />
        </mxCell>
        <mxCell id="fZ7k1q9AKKnvevmPlnid-181" value="" style="endArrow=none;html=1;exitX=0.5;exitY=1;exitDx=0;exitDy=0;" parent="1" edge="1">
          <mxGeometry width="50" height="50" relative="1" as="geometry">
            <mxPoint x="4552.04" y="567.5" as="sourcePoint" />
            <mxPoint x="4552.04" y="756.25" as="targetPoint" />
          </mxGeometry>
        </mxCell>
        <mxCell id="fZ7k1q9AKKnvevmPlnid-182" value="PYRAMID (axles)" style="text;html=1;strokeColor=none;fillColor=none;align=center;verticalAlign=middle;whiteSpace=wrap;rounded=0;" parent="1" vertex="1">
          <mxGeometry x="4492.5" y="757.5" width="137.5" height="20" as="geometry" />
        </mxCell>
        <mxCell id="fZ7k1q9AKKnvevmPlnid-183" value="Rx(90)" style="text;html=1;strokeColor=none;fillColor=none;align=center;verticalAlign=middle;whiteSpace=wrap;rounded=0;fontSize=10;" parent="1" vertex="1">
          <mxGeometry x="4483.75" y="335" width="40" height="20" as="geometry" />
        </mxCell>
        <mxCell id="fZ7k1q9AKKnvevmPlnid-184" value="Ry(wheelsRotation)" style="text;html=1;strokeColor=none;fillColor=none;align=center;verticalAlign=middle;whiteSpace=wrap;rounded=0;fontSize=10;" parent="1" vertex="1">
          <mxGeometry x="4423.75" y="426.25" width="100" height="20" as="geometry" />
        </mxCell>
        <mxCell id="fZ7k1q9AKKnvevmPlnid-185" value="S(0.1, WHEELS_Z_DISTANCE, 0.1)" style="text;html=1;strokeColor=none;fillColor=none;align=center;verticalAlign=middle;whiteSpace=wrap;rounded=0;fontSize=10;" parent="1" vertex="1">
          <mxGeometry x="4343.75" y="537.5" width="180" height="20" as="geometry" />
        </mxCell>
        <mxCell id="fZ7k1q9AKKnvevmPlnid-186" value="" style="endArrow=none;html=1;exitX=0.5;exitY=0;exitDx=0;exitDy=0;" parent="1" source="DMSrZRa8ry4ErwUZf5ye-45" edge="1">
          <mxGeometry width="50" height="50" relative="1" as="geometry">
            <mxPoint x="4990" y="95" as="sourcePoint" />
            <mxPoint x="4950" y="50" as="targetPoint" />
          </mxGeometry>
        </mxCell>
        <mxCell id="fZ7k1q9AKKnvevmPlnid-211" value="" style="endArrow=none;html=1;entryX=0.5;entryY=0;entryDx=0;entryDy=0;" parent="1" edge="1" target="DMSrZRa8ry4ErwUZf5ye-3">
          <mxGeometry width="50" height="50" relative="1" as="geometry">
            <mxPoint x="5390" y="50" as="sourcePoint" />
            <mxPoint x="5360" y="50" as="targetPoint" />
          </mxGeometry>
        </mxCell>
        <mxCell id="fZ7k1q9AKKnvevmPlnid-233" value="&lt;div&gt;&lt;font style=&quot;font-size: 66px&quot;&gt;. . .&lt;/font&gt;&lt;/div&gt;&lt;div&gt;&lt;font style=&quot;font-size: 31px&quot;&gt;until last bullet in array&lt;br&gt;&lt;/font&gt;&lt;/div&gt;" style="text;html=1;strokeColor=none;fillColor=none;align=center;verticalAlign=middle;whiteSpace=wrap;rounded=0;fontSize=40;" parent="1" vertex="1">
          <mxGeometry x="5020" y="122.5" width="213.75" height="125" as="geometry" />
        </mxCell>
        <mxCell id="DMSrZRa8ry4ErwUZf5ye-3" value="" style="ellipse;whiteSpace=wrap;html=1;aspect=fixed;" vertex="1" parent="1">
          <mxGeometry x="5370" y="95" width="40" height="40" as="geometry" />
        </mxCell>
        <mxCell id="DMSrZRa8ry4ErwUZf5ye-4" value="T(pos [0], pos [1], pos [2])" style="text;html=1;strokeColor=none;fillColor=none;align=center;verticalAlign=middle;whiteSpace=wrap;rounded=0;fontSize=10;" vertex="1" parent="1">
          <mxGeometry x="5240" y="100" width="130" height="30" as="geometry" />
        </mxCell>
        <mxCell id="DMSrZRa8ry4ErwUZf5ye-5" value="" style="endArrow=none;html=1;rounded=0;fontSize=10;entryX=0.5;entryY=1;entryDx=0;entryDy=0;" edge="1" parent="1" target="DMSrZRa8ry4ErwUZf5ye-3">
          <mxGeometry width="50" height="50" relative="1" as="geometry">
            <mxPoint x="5390" y="170" as="sourcePoint" />
            <mxPoint x="5390" y="160" as="targetPoint" />
          </mxGeometry>
        </mxCell>
        <mxCell id="DMSrZRa8ry4ErwUZf5ye-6" value="" style="ellipse;whiteSpace=wrap;html=1;aspect=fixed;" vertex="1" parent="1">
          <mxGeometry x="5370" y="165" width="40" height="40" as="geometry" />
        </mxCell>
        <mxCell id="DMSrZRa8ry4ErwUZf5ye-7" value="" style="endArrow=none;html=1;rounded=0;fontSize=10;entryX=0.5;entryY=1;entryDx=0;entryDy=0;" edge="1" parent="1" target="DMSrZRa8ry4ErwUZf5ye-6">
          <mxGeometry width="50" height="50" relative="1" as="geometry">
            <mxPoint x="5390" y="240" as="sourcePoint" />
            <mxPoint x="5390" y="210" as="targetPoint" />
          </mxGeometry>
        </mxCell>
        <mxCell id="DMSrZRa8ry4ErwUZf5ye-21" value="" style="edgeStyle=orthogonalEdgeStyle;rounded=0;orthogonalLoop=1;jettySize=auto;html=1;endArrow=none;endFill=0;" edge="1" parent="1" source="DMSrZRa8ry4ErwUZf5ye-8">
          <mxGeometry relative="1" as="geometry">
            <mxPoint x="5390" y="300" as="targetPoint" />
          </mxGeometry>
        </mxCell>
        <mxCell id="DMSrZRa8ry4ErwUZf5ye-8" value="" style="ellipse;whiteSpace=wrap;html=1;aspect=fixed;" vertex="1" parent="1">
          <mxGeometry x="5370" y="240" width="40" height="40" as="geometry" />
        </mxCell>
        <mxCell id="DMSrZRa8ry4ErwUZf5ye-9" value="" style="endArrow=none;html=1;rounded=0;fontSize=10;exitX=0.5;exitY=0;exitDx=0;exitDy=0;" edge="1" parent="1" source="DMSrZRa8ry4ErwUZf5ye-10">
          <mxGeometry width="50" height="50" relative="1" as="geometry">
            <mxPoint x="5390" y="320" as="sourcePoint" />
            <mxPoint x="5390" y="300" as="targetPoint" />
            <Array as="points">
              <mxPoint x="5270" y="300" />
            </Array>
          </mxGeometry>
        </mxCell>
        <mxCell id="DMSrZRa8ry4ErwUZf5ye-10" value="" style="ellipse;whiteSpace=wrap;html=1;aspect=fixed;" vertex="1" parent="1">
          <mxGeometry x="5250" y="322.5" width="40" height="40" as="geometry" />
        </mxCell>
        <mxCell id="DMSrZRa8ry4ErwUZf5ye-11" value="Ry(angleY)" style="text;html=1;strokeColor=none;fillColor=none;align=center;verticalAlign=middle;whiteSpace=wrap;rounded=0;fontSize=10;" vertex="1" parent="1">
          <mxGeometry x="5302.5" y="170" width="60" height="30" as="geometry" />
        </mxCell>
        <mxCell id="DMSrZRa8ry4ErwUZf5ye-12" value="Rz(angleZ)" style="text;html=1;strokeColor=none;fillColor=none;align=center;verticalAlign=middle;whiteSpace=wrap;rounded=0;fontSize=10;" vertex="1" parent="1">
          <mxGeometry x="5302.5" y="245" width="60" height="30" as="geometry" />
        </mxCell>
        <mxCell id="DMSrZRa8ry4ErwUZf5ye-13" value="&lt;div style=&quot;text-align: justify&quot;&gt;&lt;span&gt;S(SUPPRESSOR_RADIUS, BULLET_CYL_SIZE, SUPPRESSOR_RADIUS)&lt;/span&gt;&lt;/div&gt;" style="text;html=1;strokeColor=none;fillColor=none;align=center;verticalAlign=middle;whiteSpace=wrap;rounded=0;fontSize=10;" vertex="1" parent="1">
          <mxGeometry x="5302.5" y="318.75" width="120" height="47.5" as="geometry" />
        </mxCell>
        <mxCell id="DMSrZRa8ry4ErwUZf5ye-14" value="" style="endArrow=none;html=1;rounded=0;fontSize=10;entryX=0.5;entryY=1;entryDx=0;entryDy=0;exitX=0.5;exitY=0;exitDx=0;exitDy=0;" edge="1" parent="1" source="DMSrZRa8ry4ErwUZf5ye-15" target="DMSrZRa8ry4ErwUZf5ye-10">
          <mxGeometry width="50" height="50" relative="1" as="geometry">
            <mxPoint x="5390" y="390" as="sourcePoint" />
            <mxPoint x="5220" y="460" as="targetPoint" />
          </mxGeometry>
        </mxCell>
        <mxCell id="DMSrZRa8ry4ErwUZf5ye-15" value="CYLINDER (bullet base)" style="text;html=1;strokeColor=none;fillColor=none;align=center;verticalAlign=middle;whiteSpace=wrap;rounded=0;fontSize=10;" vertex="1" parent="1">
          <mxGeometry x="5210" y="410" width="120" height="30" as="geometry" />
        </mxCell>
        <mxCell id="DMSrZRa8ry4ErwUZf5ye-16" value="" style="endArrow=none;html=1;rounded=0;fontSize=10;exitX=0.5;exitY=0;exitDx=0;exitDy=0;" edge="1" parent="1" source="DMSrZRa8ry4ErwUZf5ye-17">
          <mxGeometry width="50" height="50" relative="1" as="geometry">
            <mxPoint x="5450" y="308.75" as="sourcePoint" />
            <mxPoint x="5390" y="300" as="targetPoint" />
            <Array as="points">
              <mxPoint x="5490" y="300" />
            </Array>
          </mxGeometry>
        </mxCell>
        <mxCell id="DMSrZRa8ry4ErwUZf5ye-17" value="" style="ellipse;whiteSpace=wrap;html=1;aspect=fixed;" vertex="1" parent="1">
          <mxGeometry x="5470" y="325" width="40" height="40" as="geometry" />
        </mxCell>
        <mxCell id="DMSrZRa8ry4ErwUZf5ye-18" value="" style="endArrow=none;html=1;rounded=0;fontSize=10;entryX=0.5;entryY=1;entryDx=0;entryDy=0;exitX=0.5;exitY=0;exitDx=0;exitDy=0;" edge="1" parent="1" source="DMSrZRa8ry4ErwUZf5ye-42" target="DMSrZRa8ry4ErwUZf5ye-17">
          <mxGeometry width="50" height="50" relative="1" as="geometry">
            <mxPoint x="5489.999999999999" y="393.75" as="sourcePoint" />
            <mxPoint x="5449.999999999999" y="520" as="targetPoint" />
          </mxGeometry>
        </mxCell>
        <mxCell id="DMSrZRa8ry4ErwUZf5ye-19" value="SPHERE (bullet end)" style="text;html=1;strokeColor=none;fillColor=none;align=center;verticalAlign=middle;whiteSpace=wrap;rounded=0;fontSize=10;" vertex="1" parent="1">
          <mxGeometry x="5438.75" y="480" width="102.5" height="30" as="geometry" />
        </mxCell>
        <mxCell id="DMSrZRa8ry4ErwUZf5ye-20" value="&lt;div style=&quot;text-align: justify&quot;&gt;&lt;span style=&quot;font-size: 10px&quot;&gt;S(SUPPRESSOR_RADIUS, BULLET_SPHERE_SIZE, SUPPRESSOR_RADIUS)&lt;/span&gt;&lt;/div&gt;" style="text;whiteSpace=wrap;html=1;" vertex="1" parent="1">
          <mxGeometry x="5525" y="401.25" width="140" height="50" as="geometry" />
        </mxCell>
        <mxCell id="DMSrZRa8ry4ErwUZf5ye-42" value="" style="ellipse;whiteSpace=wrap;html=1;aspect=fixed;" vertex="1" parent="1">
          <mxGeometry x="5470" y="406.25" width="40" height="40" as="geometry" />
        </mxCell>
        <mxCell id="DMSrZRa8ry4ErwUZf5ye-43" value="" style="endArrow=none;html=1;rounded=0;fontSize=10;entryX=0.5;entryY=1;entryDx=0;entryDy=0;exitX=0.5;exitY=0;exitDx=0;exitDy=0;" edge="1" parent="1" target="DMSrZRa8ry4ErwUZf5ye-42" source="DMSrZRa8ry4ErwUZf5ye-19">
          <mxGeometry width="50" height="50" relative="1" as="geometry">
            <mxPoint x="5410" y="517.5" as="sourcePoint" />
            <mxPoint x="5369.999999999999" y="577.5" as="targetPoint" />
          </mxGeometry>
        </mxCell>
        <mxCell id="DMSrZRa8ry4ErwUZf5ye-44" value="&lt;font style=&quot;font-size: 10px&quot;&gt;T(0, BULLET_CYL_SIZE/2, 0)&lt;/font&gt;" style="text;whiteSpace=wrap;html=1;" vertex="1" parent="1">
          <mxGeometry x="5520" y="328.75" width="145" height="30" as="geometry" />
        </mxCell>
        <mxCell id="DMSrZRa8ry4ErwUZf5ye-45" value="" style="ellipse;whiteSpace=wrap;html=1;aspect=fixed;" vertex="1" parent="1">
          <mxGeometry x="4930" y="95" width="40" height="40" as="geometry" />
        </mxCell>
        <mxCell id="DMSrZRa8ry4ErwUZf5ye-46" value="T(pos [0], pos [1], pos [2])" style="text;html=1;strokeColor=none;fillColor=none;align=center;verticalAlign=middle;whiteSpace=wrap;rounded=0;fontSize=10;" vertex="1" parent="1">
          <mxGeometry x="4800" y="100" width="130" height="30" as="geometry" />
        </mxCell>
        <mxCell id="DMSrZRa8ry4ErwUZf5ye-47" value="" style="endArrow=none;html=1;rounded=0;fontSize=10;entryX=0.5;entryY=1;entryDx=0;entryDy=0;" edge="1" parent="1" target="DMSrZRa8ry4ErwUZf5ye-45">
          <mxGeometry width="50" height="50" relative="1" as="geometry">
            <mxPoint x="4950" y="170" as="sourcePoint" />
            <mxPoint x="4950" y="160" as="targetPoint" />
          </mxGeometry>
        </mxCell>
        <mxCell id="DMSrZRa8ry4ErwUZf5ye-48" value="" style="ellipse;whiteSpace=wrap;html=1;aspect=fixed;" vertex="1" parent="1">
          <mxGeometry x="4930" y="165" width="40" height="40" as="geometry" />
        </mxCell>
        <mxCell id="DMSrZRa8ry4ErwUZf5ye-49" value="" style="endArrow=none;html=1;rounded=0;fontSize=10;entryX=0.5;entryY=1;entryDx=0;entryDy=0;" edge="1" parent="1" target="DMSrZRa8ry4ErwUZf5ye-48">
          <mxGeometry width="50" height="50" relative="1" as="geometry">
            <mxPoint x="4950" y="240" as="sourcePoint" />
            <mxPoint x="4950" y="210" as="targetPoint" />
          </mxGeometry>
        </mxCell>
        <mxCell id="DMSrZRa8ry4ErwUZf5ye-50" value="" style="edgeStyle=orthogonalEdgeStyle;rounded=0;orthogonalLoop=1;jettySize=auto;html=1;endArrow=none;endFill=0;" edge="1" parent="1" source="DMSrZRa8ry4ErwUZf5ye-51">
          <mxGeometry relative="1" as="geometry">
            <mxPoint x="4950" y="300" as="targetPoint" />
          </mxGeometry>
        </mxCell>
        <mxCell id="DMSrZRa8ry4ErwUZf5ye-51" value="" style="ellipse;whiteSpace=wrap;html=1;aspect=fixed;" vertex="1" parent="1">
          <mxGeometry x="4930" y="240" width="40" height="40" as="geometry" />
        </mxCell>
        <mxCell id="DMSrZRa8ry4ErwUZf5ye-52" value="" style="endArrow=none;html=1;rounded=0;fontSize=10;exitX=0.5;exitY=0;exitDx=0;exitDy=0;" edge="1" parent="1" source="DMSrZRa8ry4ErwUZf5ye-53">
          <mxGeometry width="50" height="50" relative="1" as="geometry">
            <mxPoint x="4950" y="320" as="sourcePoint" />
            <mxPoint x="4950" y="300" as="targetPoint" />
            <Array as="points">
              <mxPoint x="4830" y="300" />
            </Array>
          </mxGeometry>
        </mxCell>
        <mxCell id="DMSrZRa8ry4ErwUZf5ye-53" value="" style="ellipse;whiteSpace=wrap;html=1;aspect=fixed;" vertex="1" parent="1">
          <mxGeometry x="4810" y="322.5" width="40" height="40" as="geometry" />
        </mxCell>
        <mxCell id="DMSrZRa8ry4ErwUZf5ye-54" value="Ry(angleY)" style="text;html=1;strokeColor=none;fillColor=none;align=center;verticalAlign=middle;whiteSpace=wrap;rounded=0;fontSize=10;" vertex="1" parent="1">
          <mxGeometry x="4862.5" y="170" width="60" height="30" as="geometry" />
        </mxCell>
        <mxCell id="DMSrZRa8ry4ErwUZf5ye-55" value="Rz(angleZ)" style="text;html=1;strokeColor=none;fillColor=none;align=center;verticalAlign=middle;whiteSpace=wrap;rounded=0;fontSize=10;" vertex="1" parent="1">
          <mxGeometry x="4862.5" y="245" width="60" height="30" as="geometry" />
        </mxCell>
        <mxCell id="DMSrZRa8ry4ErwUZf5ye-56" value="&lt;div style=&quot;text-align: justify&quot;&gt;&lt;span&gt;S(SUPPRESSOR_RADIUS, BULLET_CYL_SIZE, SUPPRESSOR_RADIUS)&lt;/span&gt;&lt;/div&gt;" style="text;html=1;strokeColor=none;fillColor=none;align=center;verticalAlign=middle;whiteSpace=wrap;rounded=0;fontSize=10;" vertex="1" parent="1">
          <mxGeometry x="4862.5" y="318.75" width="120" height="47.5" as="geometry" />
        </mxCell>
        <mxCell id="DMSrZRa8ry4ErwUZf5ye-57" value="" style="endArrow=none;html=1;rounded=0;fontSize=10;entryX=0.5;entryY=1;entryDx=0;entryDy=0;exitX=0.5;exitY=0;exitDx=0;exitDy=0;" edge="1" parent="1" source="DMSrZRa8ry4ErwUZf5ye-58" target="DMSrZRa8ry4ErwUZf5ye-53">
          <mxGeometry width="50" height="50" relative="1" as="geometry">
            <mxPoint x="4950" y="390" as="sourcePoint" />
            <mxPoint x="4780" y="460" as="targetPoint" />
          </mxGeometry>
        </mxCell>
        <mxCell id="DMSrZRa8ry4ErwUZf5ye-58" value="CYLINDER (bullet base)" style="text;html=1;strokeColor=none;fillColor=none;align=center;verticalAlign=middle;whiteSpace=wrap;rounded=0;fontSize=10;" vertex="1" parent="1">
          <mxGeometry x="4770" y="410" width="120" height="30" as="geometry" />
        </mxCell>
        <mxCell id="DMSrZRa8ry4ErwUZf5ye-59" value="" style="endArrow=none;html=1;rounded=0;fontSize=10;exitX=0.5;exitY=0;exitDx=0;exitDy=0;" edge="1" parent="1" source="DMSrZRa8ry4ErwUZf5ye-60">
          <mxGeometry width="50" height="50" relative="1" as="geometry">
            <mxPoint x="5010" y="308.75" as="sourcePoint" />
            <mxPoint x="4950" y="300" as="targetPoint" />
            <Array as="points">
              <mxPoint x="5050" y="300" />
            </Array>
          </mxGeometry>
        </mxCell>
        <mxCell id="DMSrZRa8ry4ErwUZf5ye-60" value="" style="ellipse;whiteSpace=wrap;html=1;aspect=fixed;" vertex="1" parent="1">
          <mxGeometry x="5030" y="325" width="40" height="40" as="geometry" />
        </mxCell>
        <mxCell id="DMSrZRa8ry4ErwUZf5ye-61" value="" style="endArrow=none;html=1;rounded=0;fontSize=10;entryX=0.5;entryY=1;entryDx=0;entryDy=0;exitX=0.5;exitY=0;exitDx=0;exitDy=0;" edge="1" parent="1" source="DMSrZRa8ry4ErwUZf5ye-64" target="DMSrZRa8ry4ErwUZf5ye-60">
          <mxGeometry width="50" height="50" relative="1" as="geometry">
            <mxPoint x="5049.999999999999" y="393.75" as="sourcePoint" />
            <mxPoint x="5009.999999999999" y="520" as="targetPoint" />
          </mxGeometry>
        </mxCell>
        <mxCell id="DMSrZRa8ry4ErwUZf5ye-62" value="SPHERE (bullet end)" style="text;html=1;strokeColor=none;fillColor=none;align=center;verticalAlign=middle;whiteSpace=wrap;rounded=0;fontSize=10;" vertex="1" parent="1">
          <mxGeometry x="4998.75" y="480" width="102.5" height="30" as="geometry" />
        </mxCell>
        <mxCell id="DMSrZRa8ry4ErwUZf5ye-63" value="&lt;div style=&quot;text-align: justify&quot;&gt;&lt;span style=&quot;font-size: 10px&quot;&gt;S(SUPPRESSOR_RADIUS, BULLET_SPHERE_SIZE, SUPPRESSOR_RADIUS)&lt;/span&gt;&lt;/div&gt;" style="text;whiteSpace=wrap;html=1;" vertex="1" parent="1">
          <mxGeometry x="5085" y="401.25" width="140" height="50" as="geometry" />
        </mxCell>
        <mxCell id="DMSrZRa8ry4ErwUZf5ye-64" value="" style="ellipse;whiteSpace=wrap;html=1;aspect=fixed;" vertex="1" parent="1">
          <mxGeometry x="5030" y="406.25" width="40" height="40" as="geometry" />
        </mxCell>
        <mxCell id="DMSrZRa8ry4ErwUZf5ye-65" value="" style="endArrow=none;html=1;rounded=0;fontSize=10;entryX=0.5;entryY=1;entryDx=0;entryDy=0;exitX=0.5;exitY=0;exitDx=0;exitDy=0;" edge="1" parent="1" source="DMSrZRa8ry4ErwUZf5ye-62" target="DMSrZRa8ry4ErwUZf5ye-64">
          <mxGeometry width="50" height="50" relative="1" as="geometry">
            <mxPoint x="4970" y="517.5" as="sourcePoint" />
            <mxPoint x="4929.999999999999" y="577.5" as="targetPoint" />
          </mxGeometry>
        </mxCell>
        <mxCell id="DMSrZRa8ry4ErwUZf5ye-66" value="&lt;font style=&quot;font-size: 10px&quot;&gt;T(0, BULLET_CYL_SIZE/2, 0)&lt;/font&gt;" style="text;whiteSpace=wrap;html=1;" vertex="1" parent="1">
          <mxGeometry x="5080" y="328.75" width="145" height="30" as="geometry" />
        </mxCell>
      </root>
    </mxGraphModel>
  </diagram>
</mxfile>
